<?xml version="1.0" encoding="UTF-8"?>
<!DOCTYPE svg PUBLIC "-//W3C//DTD SVG 1.1//EN" "http://www.w3.org/Graphics/SVG/1.1/DTD/svg11.dtd">
<svg xmlns="http://www.w3.org/2000/svg" version="1.1" width="512px" height="512px" style="shape-rendering:geometricPrecision; text-rendering:geometricPrecision; image-rendering:optimizeQuality; fill-rule:evenodd; clip-rule:evenodd" xmlns:xlink="http://www.w3.org/1999/xlink">
<g><path style="opacity:0.989" fill="#3b8686" d="M 407.5,487.5 C 407.833,441.162 407.5,394.829 406.5,348.5C 383.82,338.786 360.486,336.953 336.5,343C 322.443,348.529 308.776,354.863 295.5,362C 265.577,372.529 235.911,371.863 206.5,360C 194.074,352.952 181.074,347.286 167.5,343C 145.844,338.163 124.844,339.996 104.5,348.5C 103.5,394.829 103.167,441.162 103.5,487.5C 102.748,494.726 98.7483,497.226 91.5,495C 89.6667,494.5 88.5,493.333 88,491.5C 87.6667,442.5 87.3333,393.5 87,344.5C 85.5758,338.046 84.4092,331.546 83.5,325C 84.3028,312.878 89.9695,303.878 100.5,298C 107.984,296.484 115.318,294.484 122.5,292C 126.298,286.908 129.465,281.408 132,275.5C 136.228,270.654 141.061,266.654 146.5,263.5C 141.294,253.049 137.794,242.049 136,230.5C 135.333,193.5 135.333,156.5 136,119.5C 144.635,69.7222 172.801,36.5555 220.5,20C 274.94,6.7008 319.44,21.8675 354,65.5C 365.116,81.8403 372.116,99.8403 375,119.5C 375.667,156.5 375.667,193.5 375,230.5C 373.206,242.049 369.706,253.049 364.5,263.5C 369.085,265.919 373.252,268.919 377,272.5C 380.255,278.008 383.255,283.675 386,289.5C 390.809,294.17 396.643,296.337 403.5,296C 413.333,299.167 419.833,305.667 423,315.5C 423.667,374.167 423.667,432.833 423,491.5C 422.5,493.333 421.333,494.5 419.5,495C 412.252,497.226 408.252,494.726 407.5,487.5 Z"/></g>
<g><path style="opacity:1" fill="#78bc99" d="M 242.5,31.5 C 288.149,29.0714 322.982,47.0714 347,85.5C 353.21,97.129 357.21,109.462 359,122.5C 359.667,156.5 359.667,190.5 359,224.5C 353.185,262.655 332.019,287.821 295.5,300C 285.869,302.077 276.203,303.744 266.5,305C 263.152,308.419 262.652,312.252 265,316.5C 265.903,317.701 267.069,318.535 268.5,319C 302.63,319.434 330.63,306.6 352.5,280.5C 357.566,278.911 361.733,280.244 365,284.5C 368.037,292.084 372.204,298.917 377.5,305C 383.688,309.729 390.688,312.063 398.5,312C 407.073,315.755 409.907,322.255 407,331.5C 378.949,321.006 350.783,320.84 322.5,331C 309.006,338.413 295.006,344.747 280.5,350C 262.174,354.666 243.841,354.666 225.5,350C 210.167,343.333 194.833,336.667 179.5,330C 153.327,322.262 127.327,322.762 101.5,331.5C 98.7666,317.175 104.767,310.342 119.5,311C 132.948,306.886 141.781,298.052 146,284.5C 149.362,280.391 153.529,279.058 158.5,280.5C 180.016,306.509 207.683,319.343 241.5,319C 245.624,318.018 247.624,315.352 247.5,311C 247.297,308.594 246.297,306.594 244.5,305C 213.561,304.445 188.395,292.279 169,268.5C 160.042,255.906 154.376,241.906 152,226.5C 151.333,191.833 151.333,157.167 152,122.5C 161.68,71.6541 191.846,41.3207 242.5,31.5 Z"/></g>
<g><path style="opacity:1" fill="#3c8686" d="M 233.5,71.5 C 251.248,70.9078 268.915,71.7411 286.5,74C 311.094,80.6052 329.928,94.7719 343,116.5C 343.667,144.5 343.667,172.5 343,200.5C 334.035,250.13 304.368,276.464 254,279.5C 216.177,277.265 189.51,258.931 174,224.5C 171.928,218.952 170.262,213.285 169,207.5C 167.381,177.201 167.047,146.868 168,116.5C 183.3,91.9377 205.133,76.9377 233.5,71.5 Z"/></g>
<g><path style="opacity:1" fill="#fcfdfd" d="M 327.5,131.5 C 312.449,115.142 293.783,105.975 271.5,104C 256.833,103.667 242.167,103.333 227.5,103C 222.2,101.513 217.867,98.6801 214.5,94.5C 221.187,91.4383 228.187,89.2717 235.5,88C 248.5,87.3333 261.5,87.3333 274.5,88C 297.039,91.5059 314.539,102.673 327,121.5C 327.498,124.817 327.665,128.15 327.5,131.5 Z"/></g>
<g><path style="opacity:1" fill="#cdee9e" d="M 214.5,94.5 C 217.867,98.6801 222.2,101.513 227.5,103C 242.167,103.333 256.833,103.667 271.5,104C 293.783,105.975 312.449,115.142 327.5,131.5C 327.66,133.199 327.494,134.866 327,136.5C 313.788,124.31 298.288,116.477 280.5,113C 265.536,111.457 250.536,111.124 235.5,112C 215.518,114.429 198.352,122.596 184,136.5C 183.333,131.5 183.333,126.5 184,121.5C 191.793,109.848 201.959,100.848 214.5,94.5 Z"/></g>
<g><path style="opacity:1" fill="#fdfefe" d="M 304.5,243.5 C 281.696,250.682 260.03,248.349 239.5,236.5C 255.444,240.727 270.444,238.56 284.5,230C 288.5,225.667 288.5,221.333 284.5,217C 281.97,215.578 279.303,215.245 276.5,216C 267.731,222.076 258.065,224.076 247.5,222C 242.003,220.08 236.669,217.913 231.5,215.5C 226.016,215.985 223.349,218.985 223.5,224.5C 206.69,207.428 198.69,186.762 199.5,162.5C 201.141,165.661 203.807,167.328 207.5,167.5C 211.198,166.105 214.865,164.772 218.5,163.5C 222.916,164.54 227.25,165.874 231.5,167.5C 236.5,167.167 239.167,164.5 239.5,159.5C 239.444,156.889 238.444,154.722 236.5,153C 225.61,146.129 214.61,145.796 203.5,152C 201.93,153.397 200.596,154.897 199.5,156.5C 199.5,152.5 199.5,148.5 199.5,144.5C 214.918,131.752 232.751,126.085 253,127.5C 284.24,125.005 308.907,136.338 327,161.5C 327.667,174.167 327.667,186.833 327,199.5C 325.02,217.129 317.52,231.796 304.5,243.5 Z"/></g>
<g><path style="opacity:1" fill="#ceef9e" d="M 199.5,144.5 C 199.5,148.5 199.5,152.5 199.5,156.5C 199.5,158.5 199.5,160.5 199.5,162.5C 198.69,186.762 206.69,207.428 223.5,224.5C 223.84,226.679 224.84,228.512 226.5,230C 230.581,232.707 234.914,234.874 239.5,236.5C 260.03,248.349 281.696,250.682 304.5,243.5C 290.371,257.05 273.371,263.717 253.5,263.5C 220.85,260.76 198.683,244.093 187,213.5C 185.378,208.968 184.378,204.301 184,199.5C 183.333,186.833 183.333,174.167 184,161.5C 188.269,154.92 193.436,149.253 199.5,144.5 Z"/></g>
<g><path style="opacity:1" fill="#418989" d="M 199.5,162.5 C 199.5,160.5 199.5,158.5 199.5,156.5C 200.596,154.897 201.93,153.397 203.5,152C 214.61,145.796 225.61,146.129 236.5,153C 238.444,154.722 239.444,156.889 239.5,159.5C 239.167,164.5 236.5,167.167 231.5,167.5C 227.25,165.874 222.916,164.54 218.5,163.5C 214.865,164.772 211.198,166.105 207.5,167.5C 203.807,167.328 201.141,165.661 199.5,162.5 Z"/></g>
<g><path style="opacity:1" fill="#3f8888" d="M 284.5,147.5 C 291.361,146.965 298.028,147.798 304.5,150C 310.989,153.135 312.823,157.968 310,164.5C 308.278,166.444 306.111,167.444 303.5,167.5C 299.626,166.294 295.96,164.628 292.5,162.5C 289.053,163.723 285.72,165.223 282.5,167C 272.952,167.747 269.785,163.58 273,154.5C 276.814,152.016 280.647,149.682 284.5,147.5 Z"/></g>
<g><path style="opacity:1" fill="#438a8a" d="M 220.5,175.5 C 228.658,174.823 232.158,178.49 231,186.5C 228.774,190.861 225.274,192.361 220.5,191C 216.139,188.774 214.639,185.274 216,180.5C 217.025,178.313 218.525,176.646 220.5,175.5 Z"/></g>
<g><path style="opacity:1" fill="#438a8a" d="M 284.5,175.5 C 292.658,174.823 296.158,178.49 295,186.5C 292.774,190.861 289.274,192.361 284.5,191C 280.139,188.774 278.639,185.274 280,180.5C 281.025,178.313 282.525,176.646 284.5,175.5 Z"/></g>
<g><path style="opacity:1" fill="#3e8887" d="M 239.5,236.5 C 234.914,234.874 230.581,232.707 226.5,230C 224.84,228.512 223.84,226.679 223.5,224.5C 223.349,218.985 226.016,215.985 231.5,215.5C 236.669,217.913 242.003,220.08 247.5,222C 258.065,224.076 267.731,222.076 276.5,216C 279.303,215.245 281.97,215.578 284.5,217C 288.5,221.333 288.5,225.667 284.5,230C 270.444,238.56 255.444,240.727 239.5,236.5 Z"/></g>
<g><path style="opacity:1" fill="#a7daa7" d="M 407.5,487.5 C 394.167,487.5 380.833,487.5 367.5,487.5C 367.667,451.832 367.5,416.165 367,380.5C 363.987,375.465 359.82,374.298 354.5,377C 353.299,377.903 352.465,379.069 352,380.5C 351.5,416.165 351.333,451.832 351.5,487.5C 322.167,487.5 292.833,487.5 263.5,487.5C 263.667,457.165 263.5,426.832 263,396.5C 259.987,391.465 255.82,390.298 250.5,393C 249.299,393.903 248.465,395.069 248,396.5C 247.5,426.832 247.333,457.165 247.5,487.5C 218.167,487.5 188.833,487.5 159.5,487.5C 159.667,451.832 159.5,416.165 159,380.5C 155.987,375.465 151.82,374.298 146.5,377C 145.299,377.903 144.465,379.069 144,380.5C 143.5,416.165 143.333,451.832 143.5,487.5C 130.167,487.5 116.833,487.5 103.5,487.5C 103.167,441.162 103.5,394.829 104.5,348.5C 124.844,339.996 145.844,338.163 167.5,343C 181.074,347.286 194.074,352.952 206.5,360C 235.911,371.863 265.577,372.529 295.5,362C 308.776,354.863 322.443,348.529 336.5,343C 360.486,336.953 383.82,338.786 406.5,348.5C 407.5,394.829 407.833,441.162 407.5,487.5 Z"/></g>
<g><path style="opacity:0.996" fill="#3b8686" d="M 159.5,487.5 C 159.842,493.158 157.176,495.824 151.5,495.5C 145.824,495.824 143.158,493.158 143.5,487.5C 143.333,451.832 143.5,416.165 144,380.5C 144.465,379.069 145.299,377.903 146.5,377C 151.82,374.298 155.987,375.465 159,380.5C 159.5,416.165 159.667,451.832 159.5,487.5 Z"/></g>
<g><path style="opacity:0.996" fill="#3b8686" d="M 367.5,487.5 C 367.842,493.158 365.176,495.824 359.5,495.5C 353.824,495.824 351.158,493.158 351.5,487.5C 351.333,451.832 351.5,416.165 352,380.5C 352.465,379.069 353.299,377.903 354.5,377C 359.82,374.298 363.987,375.465 367,380.5C 367.5,416.165 367.667,451.832 367.5,487.5 Z"/></g>
<g><path style="opacity:0.995" fill="#3b8686" d="M 263.5,487.5 C 263.842,493.158 261.176,495.824 255.5,495.5C 249.824,495.824 247.158,493.158 247.5,487.5C 247.333,457.165 247.5,426.832 248,396.5C 248.465,395.069 249.299,393.903 250.5,393C 255.82,390.298 259.987,391.465 263,396.5C 263.5,426.832 263.667,457.165 263.5,487.5 Z"/></g>
<g><path style="opacity:1" fill="#3f8987" d="M 220.5,407.5 C 228.658,406.823 232.158,410.49 231,418.5C 228.774,422.861 225.274,424.361 220.5,423C 216.139,420.774 214.639,417.274 216,412.5C 217.025,410.313 218.525,408.646 220.5,407.5 Z"/></g>
<g><path style="opacity:1" fill="#3f8987" d="M 220.5,439.5 C 228.658,438.823 232.158,442.49 231,450.5C 228.774,454.861 225.274,456.361 220.5,455C 216.139,452.774 214.639,449.274 216,444.5C 217.025,442.313 218.525,440.646 220.5,439.5 Z"/></g>
</svg>
