<?xml version="1.0" encoding="UTF-8"?>
<!DOCTYPE svg PUBLIC "-//W3C//DTD SVG 1.1//EN" "http://www.w3.org/Graphics/SVG/1.1/DTD/svg11.dtd">
<svg xmlns="http://www.w3.org/2000/svg" version="1.1" width="512px" height="512px" style="shape-rendering:geometricPrecision; text-rendering:geometricPrecision; image-rendering:optimizeQuality; fill-rule:evenodd; clip-rule:evenodd" xmlns:xlink="http://www.w3.org/1999/xlink">
<g><path style="opacity:0.986" fill="#3c8686" d="M 239.5,15.5 C 294.148,11.2955 336.314,31.9622 366,77.5C 384.26,109.658 388.593,143.658 379,179.5C 361.55,231.618 325.717,262.118 271.5,271C 216.832,275.693 174.665,255.193 145,209.5C 126.74,177.342 122.407,143.342 132,107.5C 149.618,55.3708 185.452,24.7041 239.5,15.5 Z"/></g>
<g><path style="opacity:1" fill="#78bc99" d="M 241.5,31.5 C 292.641,28.8113 330.807,49.478 356,93.5C 376.566,142.5 368.733,186.334 332.5,225C 327.269,229.531 321.769,233.698 316,237.5C 315.594,220.471 315.927,203.471 317,186.5C 314.552,173.934 308.719,163.267 299.5,154.5C 305.517,146.463 309.35,137.463 311,127.5C 311.667,116.5 311.667,105.5 311,94.5C 307.606,78.1929 299.106,65.3596 285.5,56C 260.813,42.7096 237.813,45.0429 216.5,63C 207.982,71.8684 202.482,82.3684 200,94.5C 199.333,104.833 199.333,115.167 200,125.5C 201.192,136.249 205.026,145.916 211.5,154.5C 202.281,163.267 196.448,173.934 194,186.5C 194.317,203.854 194.984,221.188 196,238.5C 158.64,212.776 141.307,177.109 144,131.5C 153.764,75.9037 186.264,42.5704 241.5,31.5 Z"/></g>
<g><path style="opacity:1" fill="#fdfdfd" d="M 281.5,149.5 C 276.12,147.145 271.454,143.812 267.5,139.5C 272.197,137.572 276.03,134.572 279,130.5C 280.167,122.333 276.667,118.833 268.5,120C 264.056,124.387 258.722,126.221 252.5,125.5C 248.779,121.112 245.445,116.445 242.5,111.5C 247.486,108.294 248.652,103.961 246,98.5C 242.617,95.4081 238.783,94.7415 234.5,96.5C 231.196,89.9208 228.862,82.9208 227.5,75.5C 230.564,72.1167 234.231,69.45 238.5,67.5C 237.6,76.9541 240.6,85.1207 247.5,92C 251.411,95.5965 255.744,96.2632 260.5,94C 263.769,90.5469 264.269,86.7135 262,82.5C 253.698,78.1576 252.532,72.491 258.5,65.5C 271.544,65.1072 281.711,70.4406 289,81.5C 291.551,85.9346 293.551,90.6012 295,95.5C 295.667,105.167 295.667,114.833 295,124.5C 293.606,134.628 289.106,142.961 281.5,149.5 Z"/></g>
<g><path style="opacity:1" fill="#cdee9e" d="M 227.5,75.5 C 228.862,82.9208 231.196,89.9208 234.5,96.5C 229.006,105.846 231.673,110.846 242.5,111.5C 245.445,116.445 248.779,121.112 252.5,125.5C 250.692,125.509 249.025,125.009 247.5,124C 243.967,119.467 239.634,118.467 234.5,121C 230.323,125.954 230.657,130.62 235.5,135C 245.332,141.87 255.999,143.37 267.5,139.5C 271.454,143.812 276.12,147.145 281.5,149.5C 260.984,164.267 241.818,162.601 224,144.5C 220.53,139.226 217.864,133.56 216,127.5C 215.333,116.833 215.333,106.167 216,95.5C 218.046,87.7343 221.879,81.0677 227.5,75.5 Z"/></g>
<g><path style="opacity:1" fill="#438a89" d="M 242.5,111.5 C 231.673,110.846 229.006,105.846 234.5,96.5C 238.783,94.7415 242.617,95.4081 246,98.5C 248.652,103.961 247.486,108.294 242.5,111.5 Z"/></g>
<g><path style="opacity:1" fill="#438a8a" d="M 268.5,95.5 C 276.658,94.8229 280.158,98.4895 279,106.5C 276.774,110.861 273.274,112.361 268.5,111C 264.139,108.774 262.639,105.274 264,100.5C 265.025,98.313 266.525,96.6464 268.5,95.5 Z"/></g>
<g><path style="opacity:0.976" fill="#3c8786" d="M 182.5,487.5 C 183.609,479.848 184.609,472.181 185.5,464.5C 190.942,438.338 194.942,411.838 197.5,385C 196.9,351.865 186.733,322.031 167,295.5C 151.953,276.575 136.787,257.742 121.5,239C 111.042,232.824 102.875,234.99 97,245.5C 96.3333,249.167 96.3333,252.833 97,256.5C 99.2386,261.077 101.905,265.411 105,269.5C 115.046,281.211 124.713,293.211 134,305.5C 136.686,312.458 134.353,316.791 127,318.5C 124.968,318.142 123.134,317.308 121.5,316C 119.302,312.977 116.969,310.144 114.5,307.5C 104.166,294.327 93.9991,280.994 84,267.5C 79.2138,256.418 79.3804,245.418 84.5,234.5C 84.315,233.416 83.9817,232.416 83.5,231.5C 79.5097,226.196 76.0097,220.53 73,214.5C 71.4826,208.92 71.1492,203.253 72,197.5C 77.4917,176.201 82.6583,154.868 87.5,133.5C 86.4139,120.603 79.4139,115.437 66.5,118C 62.3333,120.167 59.1667,123.333 57,127.5C 48.8732,157.34 41.3732,187.34 34.5,217.5C 30.4708,228.074 30.6375,238.74 35,249.5C 54.6667,286.167 74.3333,322.833 94,359.5C 103.154,380.574 106.82,402.574 105,425.5C 102.597,446.152 100.43,466.819 98.5,487.5C 98.8422,493.158 96.1756,495.824 90.5,495.5C 85.0191,495.688 82.0191,493.022 81.5,487.5C 84.6762,463.081 87.0095,438.581 88.5,414C 88.6048,393.586 83.7714,374.419 74,356.5C 57.3333,325.833 40.6667,295.167 24,264.5C 15.5497,249.781 13.2164,234.114 17,217.5C 25.1773,185.124 33.5107,152.791 42,120.5C 51.3044,102.952 65.4711,97.1188 84.5,103C 101.046,111.6 107.213,125.1 103,143.5C 97.5986,163.939 92.4319,184.439 87.5,205C 89.8427,211.517 93.3427,217.351 98,222.5C 112.174,216.796 124.84,219.129 136,229.5C 153.716,251.547 171.049,273.881 188,296.5C 207.637,328.385 215.971,363.051 213,400.5C 208.613,430.209 203.946,459.876 199,489.5C 197.839,493.833 195.005,495.833 190.5,495.5C 184.824,495.824 182.158,493.158 182.5,487.5 Z"/></g>
<g><path style="opacity:0.975" fill="#3c8786" d="M 412.5,487.5 C 411.434,475 410.101,462.666 408.5,450.5C 400.794,412.74 406.294,377.073 425,343.5C 442,312.167 459,280.833 476,249.5C 479.083,241.755 480.083,233.755 479,225.5C 471.152,193.775 463.152,162.108 455,130.5C 450.094,118.297 441.594,114.797 429.5,120C 423.833,125.319 421.999,131.819 424,139.5C 430.271,160.915 435.437,182.582 439.5,204.5C 439.518,207.924 439.018,211.257 438,214.5C 434.99,220.53 431.49,226.196 427.5,231.5C 427.018,232.416 426.685,233.416 426.5,234.5C 431.62,245.418 431.786,256.418 427,267.5C 417.001,280.994 406.834,294.327 396.5,307.5C 394.031,310.144 391.698,312.977 389.5,316C 382.112,320.643 377.446,318.643 375.5,310C 375.625,308.373 376.125,306.873 377,305.5C 386.287,293.211 395.954,281.211 406,269.5C 409.095,265.411 411.761,261.077 414,256.5C 416.077,241.752 409.91,235.085 395.5,236.5C 391.159,237.431 387.659,239.764 385,243.5C 370.333,262.167 355.667,280.833 341,299.5C 320.478,328.913 311.478,361.58 314,397.5C 319.159,427.453 323.992,457.453 328.5,487.5C 328.842,493.158 326.176,495.824 320.5,495.5C 315.995,495.833 313.161,493.833 312,489.5C 307.054,459.876 302.387,430.209 298,400.5C 295.029,363.051 303.363,328.385 323,296.5C 339.951,273.881 357.284,251.547 375,229.5C 386.16,219.129 398.826,216.796 413,222.5C 417.657,217.351 421.157,211.517 423.5,205C 418.568,184.439 413.401,163.939 408,143.5C 403.649,118.705 413.815,104.372 438.5,100.5C 452.549,101.273 462.715,107.939 469,120.5C 477.489,152.791 485.823,185.124 494,217.5C 497.784,234.114 495.45,249.781 487,264.5C 466.618,300.597 447.284,337.264 429,374.5C 424.414,387.268 422.247,400.435 422.5,414C 423.99,438.581 426.324,463.081 429.5,487.5C 427.195,495.443 422.195,497.61 414.5,494C 412.984,492.103 412.317,489.936 412.5,487.5 Z"/></g>
<g><path style="opacity:1" fill="#fefefe" d="M 83.5,231.5 C 73.661,237.825 70.161,246.825 73,258.5C 73.8624,260.087 74.5291,261.754 75,263.5C 84.7396,277.243 95.2396,290.41 106.5,303C 109.059,304.777 111.726,306.277 114.5,307.5C 116.969,310.144 119.302,312.977 121.5,316C 123.134,317.308 124.968,318.142 127,318.5C 134.353,316.791 136.686,312.458 134,305.5C 124.713,293.211 115.046,281.211 105,269.5C 101.905,265.411 99.2386,261.077 97,256.5C 96.3333,252.833 96.3333,249.167 97,245.5C 102.875,234.99 111.042,232.824 121.5,239C 136.787,257.742 151.953,276.575 167,295.5C 186.733,322.031 196.9,351.865 197.5,385C 194.942,411.838 190.942,438.338 185.5,464.5C 159.542,463.034 142.375,450.034 134,425.5C 133.249,394.248 123.916,365.915 106,340.5C 88.6153,318.116 71.6153,295.45 55,272.5C 45.0721,255.205 38.2388,236.871 34.5,217.5C 41.3732,187.34 48.8732,157.34 57,127.5C 59.1667,123.333 62.3333,120.167 66.5,118C 79.4139,115.437 86.4139,120.603 87.5,133.5C 82.6583,154.868 77.4917,176.201 72,197.5C 71.1492,203.253 71.4826,208.92 73,214.5C 76.0097,220.53 79.5097,226.196 83.5,231.5 Z"/></g>
<g><path style="opacity:1" fill="#fefefe" d="M 408.5,450.5 C 370.297,435.106 349.464,406.773 346,365.5C 343.568,329.559 352.235,296.559 372,266.5C 380.048,256.625 387.881,246.625 395.5,236.5C 409.91,235.085 416.077,241.752 414,256.5C 411.761,261.077 409.095,265.411 406,269.5C 395.954,281.211 386.287,293.211 377,305.5C 376.125,306.873 375.625,308.373 375.5,310C 377.446,318.643 382.112,320.643 389.5,316C 391.698,312.977 394.031,310.144 396.5,307.5C 401.742,305.283 406.242,301.95 410,297.5C 418.667,286.167 427.333,274.833 436,263.5C 439.83,254.117 439.163,245.117 434,236.5C 432.242,234.235 430.075,232.568 427.5,231.5C 431.49,226.196 434.99,220.53 438,214.5C 439.018,211.257 439.518,207.924 439.5,204.5C 435.437,182.582 430.271,160.915 424,139.5C 421.999,131.819 423.833,125.319 429.5,120C 441.594,114.797 450.094,118.297 455,130.5C 463.152,162.108 471.152,193.775 479,225.5C 480.083,233.755 479.083,241.755 476,249.5C 459,280.833 442,312.167 425,343.5C 406.294,377.073 400.794,412.74 408.5,450.5 Z"/></g>
<g><path style="opacity:1" fill="#3f8887" d="M 252.5,125.5 C 258.722,126.221 264.056,124.387 268.5,120C 276.667,118.833 280.167,122.333 279,130.5C 276.03,134.572 272.197,137.572 267.5,139.5C 255.999,143.37 245.332,141.87 235.5,135C 230.657,130.62 230.323,125.954 234.5,121C 239.634,118.467 243.967,119.467 247.5,124C 249.025,125.009 250.692,125.509 252.5,125.5 Z"/></g>
<g><path style="opacity:1" fill="#fafcfb" d="M 276.5,187.5 C 270.055,184.948 264.721,180.948 260.5,175.5C 270.181,173.548 279.515,170.715 288.5,167C 290.167,168.667 291.833,170.333 293.5,172C 288.262,177.742 282.596,182.909 276.5,187.5 Z"/></g>
<g><path style="opacity:1" fill="#a6daa7" d="M 217.5,171.5 C 229.545,183.356 242.878,193.522 257.5,202C 243.093,210.287 227.926,216.787 212,221.5C 210.616,209.193 210.283,196.86 211,184.5C 212.653,179.861 214.819,175.528 217.5,171.5 Z"/></g>
<g><path style="opacity:1" fill="#cbec9e" d="M 260.5,175.5 C 264.721,180.948 270.055,184.948 276.5,187.5C 275.452,189.534 273.786,190.867 271.5,191.5C 262.99,187.081 254.99,181.914 247.5,176C 251.821,175.501 256.154,175.334 260.5,175.5 Z"/></g>
<g><path style="opacity:1" fill="#a6d9a7" d="M 299.5,188.5 C 300.117,188.611 300.617,188.944 301,189.5C 299.909,208.801 299.076,228.134 298.5,247.5C 269.819,258.116 241.152,258.116 212.5,247.5C 212.18,244.102 212.513,240.768 213.5,237.5C 246.77,228.876 275.436,212.543 299.5,188.5 Z"/></g>
<g><path style="opacity:1" fill="#ceef9e" d="M 34.5,217.5 C 38.2388,236.871 45.0721,255.205 55,272.5C 71.6153,295.45 88.6153,318.116 106,340.5C 123.916,365.915 133.249,394.248 134,425.5C 142.375,450.034 159.542,463.034 185.5,464.5C 184.609,472.181 183.609,479.848 182.5,487.5C 154.5,487.5 126.5,487.5 98.5,487.5C 100.43,466.819 102.597,446.152 105,425.5C 106.82,402.574 103.154,380.574 94,359.5C 74.3333,322.833 54.6667,286.167 35,249.5C 30.6375,238.74 30.4708,228.074 34.5,217.5 Z"/></g>
<g><path style="opacity:1" fill="#cced9f" d="M 83.5,231.5 C 83.9817,232.416 84.315,233.416 84.5,234.5C 79.3804,245.418 79.2138,256.418 84,267.5C 93.9991,280.994 104.166,294.327 114.5,307.5C 111.726,306.277 109.059,304.777 106.5,303C 95.2396,290.41 84.7396,277.243 75,263.5C 74.5291,261.754 73.8624,260.087 73,258.5C 70.161,246.825 73.661,237.825 83.5,231.5 Z"/></g>
<g><path style="opacity:1" fill="#cced9f" d="M 427.5,231.5 C 430.075,232.568 432.242,234.235 434,236.5C 439.163,245.117 439.83,254.117 436,263.5C 427.333,274.833 418.667,286.167 410,297.5C 406.242,301.95 401.742,305.283 396.5,307.5C 406.834,294.327 417.001,280.994 427,267.5C 431.786,256.418 431.62,245.418 426.5,234.5C 426.685,233.416 427.018,232.416 427.5,231.5 Z"/></g>
<g><path style="opacity:1" fill="#ceef9e" d="M 395.5,236.5 C 387.881,246.625 380.048,256.625 372,266.5C 352.235,296.559 343.568,329.559 346,365.5C 349.464,406.773 370.297,435.106 408.5,450.5C 410.101,462.666 411.434,475 412.5,487.5C 384.5,487.5 356.5,487.5 328.5,487.5C 323.992,457.453 319.159,427.453 314,397.5C 311.478,361.58 320.478,328.913 341,299.5C 355.667,280.833 370.333,262.167 385,243.5C 387.659,239.764 391.159,237.431 395.5,236.5 Z"/></g>
</svg>
