<?xml version="1.0" encoding="UTF-8"?>
<!DOCTYPE svg PUBLIC "-//W3C//DTD SVG 1.1//EN" "http://www.w3.org/Graphics/SVG/1.1/DTD/svg11.dtd">
<svg xmlns="http://www.w3.org/2000/svg" version="1.1" width="512px" height="512px" style="shape-rendering:geometricPrecision; text-rendering:geometricPrecision; image-rendering:optimizeQuality; fill-rule:evenodd; clip-rule:evenodd" xmlns:xlink="http://www.w3.org/1999/xlink">
<g><path style="opacity:0.992" fill="#3b8686" d="M 131.5,15.5 C 163.222,11.692 186.556,23.692 201.5,51.5C 204.229,56.519 206.062,61.8523 207,67.5C 207.667,93.8333 207.667,120.167 207,146.5C 204.295,160.745 197.795,172.912 187.5,183C 204.813,182.072 217.98,188.905 227,203.5C 228.927,206.948 230.261,210.615 231,214.5C 231.667,251.833 231.667,289.167 231,326.5C 225.34,340.83 215.007,346.164 200,342.5C 199.667,357.5 199.333,372.5 199,387.5C 197.461,390.521 194.961,391.854 191.5,391.5C 191.333,410.17 191.5,428.836 192,447.5C 206.73,451.229 216.73,460.229 222,474.5C 223.456,480.097 223.789,485.763 223,491.5C 222.5,493.333 221.333,494.5 219.5,495C 168.833,495.667 118.167,495.667 67.5,495C 65.6667,494.5 64.5,493.333 64,491.5C 62.972,468.857 73.3054,454.19 95,447.5C 95.4999,428.836 95.6666,410.17 95.5,391.5C 92.0388,391.854 89.5388,390.521 88,387.5C 87.6667,372.5 87.3333,357.5 87,342.5C 71.9933,346.164 61.66,340.83 56,326.5C 55.3333,289.167 55.3333,251.833 56,214.5C 62.5986,193.251 77.0986,182.751 99.5,183C 89.4915,173.154 82.9915,161.321 80,147.5C 79.3333,120.833 79.3333,94.1667 80,67.5C 86.6811,39.6527 103.848,22.3193 131.5,15.5 Z M 163.5,103.5 C 159.759,106.556 158.593,110.556 160,115.5C 161.529,118.516 164.029,119.849 167.5,119.5C 174.731,118.736 177.231,114.736 175,107.5C 174.31,105.65 173.144,104.316 171.5,103.5C 178.167,103.5 184.833,103.5 191.5,103.5C 191.667,114.172 191.5,124.839 191,135.5C 190.453,151.933 183.619,164.933 170.5,174.5C 159.653,175.287 149.653,172.953 140.5,167.5C 151.712,168.603 160.879,164.936 168,156.5C 169.5,147.333 165.667,143.5 156.5,145C 147.833,152.333 139.167,152.333 130.5,145C 126.598,144.112 122.931,144.612 119.5,146.5C 114.208,137.662 111.875,127.996 112.5,117.5C 125.833,122.167 130.167,117.833 125.5,104.5C 138.117,103.538 150.784,103.205 163.5,103.5 Z M 158.5,199.5 C 157.081,211.389 150.415,216.222 138.5,214C 135.064,212.726 132.397,210.559 130.5,207.5C 140.594,207.312 149.927,204.645 158.5,199.5 Z M 71.5,260.5 C 74.9374,263.701 77.1041,267.701 78,272.5C 79.9453,284.51 79.9453,296.51 78,308.5C 76.7261,311.936 74.5594,314.603 71.5,316.5C 71.5,297.833 71.5,279.167 71.5,260.5 Z M 215.5,260.5 C 215.5,279.167 215.5,297.833 215.5,316.5C 212.441,314.603 210.274,311.936 209,308.5C 207.055,296.51 207.055,284.51 209,272.5C 209.896,267.701 212.063,263.701 215.5,260.5 Z M 111.5,402.5 C 114.559,404.397 116.726,407.064 118,410.5C 120,419.167 120,427.833 118,436.5C 116.726,439.936 114.559,442.603 111.5,444.5C 111.5,430.5 111.5,416.5 111.5,402.5 Z M 175.5,402.5 C 175.5,416.5 175.5,430.5 175.5,444.5C 172.441,442.603 170.274,439.936 169,436.5C 167,427.833 167,419.167 169,410.5C 170.274,407.064 172.441,404.397 175.5,402.5 Z"/></g>
<g><path style="opacity:0.989" fill="#3b8686" d="M 345.5,15.5 C 395,11.8983 429.834,32.5649 450,77.5C 456.838,97.0915 457.171,116.758 451,136.5C 443.681,153.819 431.181,165.652 413.5,172C 410.167,175.667 406.833,179.333 403.5,183C 420.813,182.072 433.98,188.905 443,203.5C 444.927,206.948 446.261,210.615 447,214.5C 447.667,251.833 447.667,289.167 447,326.5C 442.287,339.117 433.12,345.117 419.5,344.5C 424.721,370.943 433.887,395.943 447,419.5C 447.667,422.167 447.667,424.833 447,427.5C 446.5,429.333 445.333,430.5 443.5,431C 431.505,431.5 419.505,431.667 407.5,431.5C 407.334,436.844 407.501,442.177 408,447.5C 431.035,454.504 441.035,469.837 438,493.5C 437.25,494.126 436.416,494.626 435.5,495C 384.833,495.667 334.167,495.667 283.5,495C 282.584,494.626 281.75,494.126 281,493.5C 277.965,469.837 287.965,454.504 311,447.5C 311.499,442.177 311.666,436.844 311.5,431.5C 299.495,431.667 287.495,431.5 275.5,431C 273.667,430.5 272.5,429.333 272,427.5C 271.333,424.833 271.333,422.167 272,419.5C 285.216,396.021 294.383,371.021 299.5,344.5C 285.88,345.117 276.713,339.117 272,326.5C 271.333,289.167 271.333,251.833 272,214.5C 278.599,193.251 293.099,182.751 315.5,183C 312.167,179.333 308.833,175.667 305.5,172C 273.394,157.642 259.561,132.809 264,97.5C 273.347,52.3203 300.513,24.9869 345.5,15.5 Z M 375.5,109.5 C 375.4,118.629 379.733,121.629 388.5,118.5C 394.268,122.317 400.601,124.984 407.5,126.5C 408.814,154.25 396.481,172.583 370.5,181.5C 359.061,178.284 349.394,172.284 341.5,163.5C 351.953,168.153 362.62,168.653 373.5,165C 376.941,163.224 380.108,161.057 383,158.5C 386.573,148.412 383.073,143.912 372.5,145C 363.833,152.333 355.167,152.333 346.5,145C 339.458,142.902 335.458,145.402 334.5,152.5C 329.601,143.061 327.268,132.895 327.5,122C 327.506,119.967 327.839,118.134 328.5,116.5C 330.166,118.828 332.499,119.828 335.5,119.5C 338.971,119.849 341.471,118.516 343,115.5C 343.497,112.854 343.664,110.187 343.5,107.5C 349.896,102.438 355.229,96.4377 359.5,89.5C 363.748,97.076 369.081,103.743 375.5,109.5 Z M 374.5,199.5 C 373.081,211.389 366.415,216.222 354.5,214C 351.064,212.726 348.397,210.559 346.5,207.5C 356.594,207.312 365.927,204.645 374.5,199.5 Z M 287.5,260.5 C 290.937,263.701 293.104,267.701 294,272.5C 295.945,284.51 295.945,296.51 294,308.5C 292.726,311.936 290.559,314.603 287.5,316.5C 287.5,297.833 287.5,279.167 287.5,260.5 Z M 431.5,260.5 C 431.5,279.167 431.5,297.833 431.5,316.5C 428.441,314.603 426.274,311.936 425,308.5C 423.055,296.51 423.055,284.51 425,272.5C 425.896,267.701 428.063,263.701 431.5,260.5 Z M 327.5,434.5 C 332.183,437.531 334.517,441.865 334.5,447.5C 332.167,447.5 329.833,447.5 327.5,447.5C 327.5,443.167 327.5,438.833 327.5,434.5 Z M 391.5,434.5 C 391.5,438.833 391.5,443.167 391.5,447.5C 389.167,447.5 386.833,447.5 384.5,447.5C 384.483,441.865 386.817,437.531 391.5,434.5 Z"/></g>
<g><path style="opacity:1" fill="#78bc99" d="M 134.5,31.5 C 160.26,29.4566 178.427,40.1232 189,63.5C 189.567,66.1677 190.067,68.8344 190.5,71.5C 159.167,71.5 127.833,71.5 96.5,71.5C 101.301,50.6989 113.968,37.3656 134.5,31.5 Z"/></g>
<g><path style="opacity:1" fill="#78bc99" d="M 349.5,31.5 C 395.058,30.2581 424.558,51.2581 438,94.5C 442.702,115.044 437.702,132.711 423,147.5C 423.086,138.865 423.253,130.198 423.5,121.5C 423.635,113.734 423.135,106.067 422,98.5C 414.652,95.7821 407.152,93.2821 399.5,91C 384.747,83.7468 373.413,72.9134 365.5,58.5C 362.507,55.4147 359.174,54.9147 355.5,57C 349.919,65.9164 342.919,73.5831 334.5,80C 323.95,85.8712 312.617,88.5379 300.5,88C 299.069,88.4652 297.903,89.2986 297,90.5C 295.86,99.2365 295.36,108.07 295.5,117C 295.749,127.193 295.916,137.36 296,147.5C 283.125,134.878 277.792,119.545 280,101.5C 287.346,62.3208 310.513,38.9875 349.5,31.5 Z"/></g>
<g><path style="opacity:0.985" fill="#cdef9d" d="M 407.5,126.5 C 400.601,124.984 394.268,122.317 388.5,118.5C 392.445,113.997 392.445,109.497 388.5,105C 382.557,102.093 378.223,103.593 375.5,109.5C 369.081,103.743 363.748,97.076 359.5,89.5C 355.229,96.4377 349.896,102.438 343.5,107.5C 337.848,101.865 332.681,102.198 328,108.5C 327.398,111.221 327.565,113.887 328.5,116.5C 327.839,118.134 327.506,119.967 327.5,122C 327.268,132.895 329.601,143.061 334.5,152.5C 334.491,154.308 334.991,155.975 336,157.5C 338.04,159.37 339.873,161.37 341.5,163.5C 349.394,172.284 359.061,178.284 370.5,181.5C 345.149,186.241 326.649,176.907 315,153.5C 313.687,149.58 312.687,145.58 312,141.5C 311.5,128.838 311.333,116.171 311.5,103.5C 330.73,101.885 346.73,93.8848 359.5,79.5C 371.693,95.5963 387.693,105.596 407.5,109.5C 407.5,115.167 407.5,120.833 407.5,126.5 Z"/></g>
<g><path style="opacity:0.994" fill="#ceef9d" d="M 191.5,103.5 C 184.833,103.5 178.167,103.5 171.5,103.5C 168.833,103.5 166.167,103.5 163.5,103.5C 150.784,103.205 138.117,103.538 125.5,104.5C 114.167,101.833 109.833,106.167 112.5,117.5C 111.875,127.996 114.208,137.662 119.5,146.5C 118.092,150.259 118.258,153.925 120,157.5C 125.572,163.369 132.405,166.702 140.5,167.5C 149.653,172.953 159.653,175.287 170.5,174.5C 146.018,189.28 124.185,185.947 105,164.5C 100.057,157.611 97.057,149.944 96,141.5C 95.5001,123.503 95.3334,105.503 95.5,87.5C 127.5,87.5 159.5,87.5 191.5,87.5C 191.5,92.8333 191.5,98.1667 191.5,103.5 Z"/></g>
<g><path style="opacity:0.924" fill="#3a8686" d="M 163.5,103.5 C 166.167,103.5 168.833,103.5 171.5,103.5C 173.144,104.316 174.31,105.65 175,107.5C 177.231,114.736 174.731,118.736 167.5,119.5C 164.029,119.849 161.529,118.516 160,115.5C 158.593,110.556 159.759,106.556 163.5,103.5 Z"/></g>
<g><path style="opacity:0.952" fill="#3c8786" d="M 125.5,104.5 C 130.167,117.833 125.833,122.167 112.5,117.5C 109.833,106.167 114.167,101.833 125.5,104.5 Z"/></g>
<g><path style="opacity:0.961" fill="#3e8886" d="M 343.5,107.5 C 343.664,110.187 343.497,112.854 343,115.5C 341.471,118.516 338.971,119.849 335.5,119.5C 332.499,119.828 330.166,118.828 328.5,116.5C 327.565,113.887 327.398,111.221 328,108.5C 332.681,102.198 337.848,101.865 343.5,107.5 Z"/></g>
<g><path style="opacity:0.969" fill="#3f8886" d="M 388.5,118.5 C 379.733,121.629 375.4,118.629 375.5,109.5C 378.223,103.593 382.557,102.093 388.5,105C 392.445,109.497 392.445,113.997 388.5,118.5 Z"/></g>
<g><path style="opacity:0.96" fill="#3b8686" d="M 140.5,167.5 C 132.405,166.702 125.572,163.369 120,157.5C 118.258,153.925 118.092,150.259 119.5,146.5C 122.931,144.612 126.598,144.112 130.5,145C 139.167,152.333 147.833,152.333 156.5,145C 165.667,143.5 169.5,147.333 168,156.5C 160.879,164.936 151.712,168.603 140.5,167.5 Z"/></g>
<g><path style="opacity:0.949" fill="#3b8686" d="M 341.5,163.5 C 339.873,161.37 338.04,159.37 336,157.5C 334.991,155.975 334.491,154.308 334.5,152.5C 335.458,145.402 339.458,142.902 346.5,145C 355.167,152.333 363.833,152.333 372.5,145C 383.073,143.912 386.573,148.412 383,158.5C 380.108,161.057 376.941,163.224 373.5,165C 362.62,168.653 351.953,168.153 341.5,163.5 Z"/></g>
<g><path style="opacity:0.959" fill="#cbed9d" d="M 159.5,198.5 C 158.833,198.5 158.5,198.833 158.5,199.5C 149.927,204.645 140.594,207.312 130.5,207.5C 127.695,204.686 127.028,201.353 128.5,197.5C 138.127,199.994 147.794,199.994 157.5,197.5C 158.416,197.543 159.083,197.876 159.5,198.5 Z"/></g>
<g><path style="opacity:0.959" fill="#cbed9d" d="M 375.5,198.5 C 374.833,198.5 374.5,198.833 374.5,199.5C 365.927,204.645 356.594,207.312 346.5,207.5C 343.695,204.686 343.028,201.353 344.5,197.5C 354.127,199.994 363.794,199.994 373.5,197.5C 374.416,197.543 375.083,197.876 375.5,198.5 Z"/></g>
<g><path style="opacity:1" fill="#a7daa7" d="M 89.5,199.5 C 96.8333,199.5 104.167,199.5 111.5,199.5C 113.013,218.511 123.18,229.178 142,231.5C 162.466,230.534 173.632,219.867 175.5,199.5C 182.175,199.334 188.842,199.5 195.5,200C 203.983,201.81 210.149,206.643 214,214.5C 215.351,220.072 215.851,225.738 215.5,231.5C 206.494,231.334 197.494,231.5 188.5,232C 187.069,232.465 185.903,233.299 185,234.5C 183.524,254.741 183.024,275.075 183.5,295.5C 156.833,295.5 130.167,295.5 103.5,295.5C 103.667,275.831 103.5,256.164 103,236.5C 102.065,233.898 100.232,232.398 97.5,232C 88.8397,231.5 80.1731,231.334 71.5,231.5C 69.5176,216.189 75.5176,205.522 89.5,199.5 Z M 158.5,199.5 C 157.081,211.389 150.415,216.222 138.5,214C 135.064,212.726 132.397,210.559 130.5,207.5C 140.594,207.312 149.927,204.645 158.5,199.5 Z"/></g>
<g><path style="opacity:1" fill="#a7daa7" d="M 305.5,199.5 C 312.833,199.5 320.167,199.5 327.5,199.5C 329.013,218.511 339.18,229.178 358,231.5C 378.466,230.534 389.632,219.867 391.5,199.5C 398.175,199.334 404.842,199.5 411.5,200C 419.983,201.81 426.149,206.643 430,214.5C 431.351,220.072 431.851,225.738 431.5,231.5C 422.494,231.334 413.494,231.5 404.5,232C 403.069,232.465 401.903,233.299 401,234.5C 399.524,254.741 399.024,275.075 399.5,295.5C 372.833,295.5 346.167,295.5 319.5,295.5C 319.667,275.831 319.5,256.164 319,236.5C 318.065,233.898 316.232,232.398 313.5,232C 304.84,231.5 296.173,231.334 287.5,231.5C 285.518,216.189 291.518,205.522 305.5,199.5 Z M 374.5,199.5 C 373.081,211.389 366.415,216.222 354.5,214C 351.064,212.726 348.397,210.559 346.5,207.5C 356.594,207.312 365.927,204.645 374.5,199.5 Z"/></g>
<g><path style="opacity:0.99" fill="#ceef9d" d="M 71.5,316.5 C 74.5594,314.603 76.7261,311.936 78,308.5C 79.9453,296.51 79.9453,284.51 78,272.5C 77.1041,267.701 74.9374,263.701 71.5,260.5C 71.5,256.167 71.5,251.833 71.5,247.5C 76.8333,247.5 82.1667,247.5 87.5,247.5C 87.6666,272.169 87.5,296.836 87,321.5C 85.3054,326.599 81.8054,328.432 76.5,327C 72.6507,324.652 70.984,321.152 71.5,316.5 Z"/></g>
<g><path style="opacity:0.991" fill="#ceef9d" d="M 215.5,260.5 C 212.063,263.701 209.896,267.701 209,272.5C 207.055,284.51 207.055,296.51 209,308.5C 210.274,311.936 212.441,314.603 215.5,316.5C 215.731,326.044 211.398,329.211 202.5,326C 201.107,324.829 200.273,323.329 200,321.5C 199.5,296.836 199.333,272.169 199.5,247.5C 204.833,247.5 210.167,247.5 215.5,247.5C 215.5,251.833 215.5,256.167 215.5,260.5 Z"/></g>
<g><path style="opacity:0.99" fill="#ceef9d" d="M 287.5,316.5 C 290.559,314.603 292.726,311.936 294,308.5C 295.945,296.51 295.945,284.51 294,272.5C 293.104,267.701 290.937,263.701 287.5,260.5C 287.5,256.167 287.5,251.833 287.5,247.5C 292.833,247.5 298.167,247.5 303.5,247.5C 303.889,273.191 303.389,298.858 302,324.5C 298.547,327.769 294.714,328.269 290.5,326C 288.206,323.282 287.206,320.115 287.5,316.5 Z"/></g>
<g><path style="opacity:0.99" fill="#ceef9d" d="M 431.5,260.5 C 428.063,263.701 425.896,267.701 425,272.5C 423.055,284.51 423.055,296.51 425,308.5C 426.274,311.936 428.441,314.603 431.5,316.5C 432.158,324.678 428.491,328.178 420.5,327C 418.667,326.5 417.5,325.333 417,323.5C 415.601,298.193 415.101,272.86 415.5,247.5C 420.833,247.5 426.167,247.5 431.5,247.5C 431.5,251.833 431.5,256.167 431.5,260.5 Z"/></g>
<g><path style="opacity:1" fill="#78bc99" d="M 103.5,311.5 C 130.167,311.5 156.833,311.5 183.5,311.5C 183.5,332.833 183.5,354.167 183.5,375.5C 172.833,375.5 162.167,375.5 151.5,375.5C 151.666,366.494 151.5,357.494 151,348.5C 147.911,343.695 143.744,342.528 138.5,345C 137.299,345.903 136.465,347.069 136,348.5C 135.5,357.494 135.334,366.494 135.5,375.5C 124.833,375.5 114.167,375.5 103.5,375.5C 103.5,354.167 103.5,332.833 103.5,311.5 Z"/></g>
<g><path style="opacity:1" fill="#78bc99" d="M 319.5,311.5 C 346.167,311.5 372.833,311.5 399.5,311.5C 401.584,347.836 410.251,382.503 425.5,415.5C 420.489,415.666 415.489,415.499 410.5,415C 397.465,403.922 390.965,389.755 391,372.5C 387.911,367.695 383.744,366.528 378.5,369C 377.299,369.903 376.465,371.069 376,372.5C 375.205,387.989 379.372,401.989 388.5,414.5C 370.843,415.666 353.176,415.833 335.5,415C 346.465,399.981 351.631,383.148 351,364.5C 347.911,359.695 343.744,358.528 338.5,361C 337.299,361.903 336.465,363.069 336,364.5C 335.599,384.054 328.766,400.888 315.5,415C 308.144,415.831 300.811,415.665 293.5,414.5C 309.273,381.97 317.94,347.637 319.5,311.5 Z"/></g>
<g><path style="opacity:0.994" fill="#cff09e" d="M 111.5,444.5 C 114.559,442.603 116.726,439.936 118,436.5C 120,427.833 120,419.167 118,410.5C 116.726,407.064 114.559,404.397 111.5,402.5C 111.5,398.833 111.5,395.167 111.5,391.5C 119.5,391.5 127.5,391.5 135.5,391.5C 135.5,410.167 135.5,428.833 135.5,447.5C 127.5,447.5 119.5,447.5 111.5,447.5C 111.5,446.5 111.5,445.5 111.5,444.5 Z"/></g>
<g><path style="opacity:0.994" fill="#cef09d" d="M 175.5,402.5 C 172.441,404.397 170.274,407.064 169,410.5C 167,419.167 167,427.833 169,436.5C 170.274,439.936 172.441,442.603 175.5,444.5C 175.5,445.5 175.5,446.5 175.5,447.5C 167.5,447.5 159.5,447.5 151.5,447.5C 151.5,428.833 151.5,410.167 151.5,391.5C 159.5,391.5 167.5,391.5 175.5,391.5C 175.5,395.167 175.5,398.833 175.5,402.5 Z"/></g>
<g><path style="opacity:0.991" fill="#cfef9e" d="M 334.5,447.5 C 334.517,441.865 332.183,437.531 327.5,434.5C 327.5,433.5 327.5,432.5 327.5,431.5C 335.5,431.5 343.5,431.5 351.5,431.5C 351.5,436.833 351.5,442.167 351.5,447.5C 345.833,447.5 340.167,447.5 334.5,447.5 Z"/></g>
<g><path style="opacity:0.99" fill="#cef09d" d="M 391.5,434.5 C 386.817,437.531 384.483,441.865 384.5,447.5C 378.833,447.5 373.167,447.5 367.5,447.5C 367.5,442.167 367.5,436.833 367.5,431.5C 375.5,431.5 383.5,431.5 391.5,431.5C 391.5,432.5 391.5,433.5 391.5,434.5 Z"/></g>
<g><path style="opacity:1" fill="#78bc99" d="M 97.5,463.5 C 110.167,463.5 122.833,463.5 135.5,463.5C 135.5,468.833 135.5,474.167 135.5,479.5C 117.5,479.5 99.5,479.5 81.5,479.5C 84.4972,471.836 89.8306,466.503 97.5,463.5 Z"/></g>
<g><path style="opacity:1" fill="#78bc99" d="M 151.5,463.5 C 163.838,463.333 176.171,463.5 188.5,464C 196.921,466.259 202.588,471.426 205.5,479.5C 187.5,479.5 169.5,479.5 151.5,479.5C 151.5,474.167 151.5,468.833 151.5,463.5 Z"/></g>
<g><path style="opacity:1" fill="#78bc99" d="M 313.5,463.5 C 326.167,463.5 338.833,463.5 351.5,463.5C 351.5,468.833 351.5,474.167 351.5,479.5C 333.5,479.5 315.5,479.5 297.5,479.5C 300.497,471.836 305.831,466.503 313.5,463.5 Z"/></g>
<g><path style="opacity:1" fill="#78bc99" d="M 367.5,463.5 C 379.838,463.333 392.171,463.5 404.5,464C 412.921,466.259 418.588,471.426 421.5,479.5C 403.5,479.5 385.5,479.5 367.5,479.5C 367.5,474.167 367.5,468.833 367.5,463.5 Z"/></g>
</svg>
