<?xml version="1.0" encoding="UTF-8"?>
<!DOCTYPE svg PUBLIC "-//W3C//DTD SVG 1.1//EN" "http://www.w3.org/Graphics/SVG/1.1/DTD/svg11.dtd">
<svg xmlns="http://www.w3.org/2000/svg" version="1.1" width="512px" height="512px" style="shape-rendering:geometricPrecision; text-rendering:geometricPrecision; image-rendering:optimizeQuality; fill-rule:evenodd; clip-rule:evenodd" xmlns:xlink="http://www.w3.org/1999/xlink">
<g><path style="opacity:0.98" fill="#3b8686" d="M 511.5,71.5 C 511.5,208.167 511.5,344.833 511.5,481.5C 510.254,483.901 508.254,485.401 505.5,486C 338.833,486.667 172.167,486.667 5.5,486C 2.74583,485.401 0.745833,483.901 -0.5,481.5C -0.5,367.833 -0.5,254.167 -0.5,140.5C 0.646381,138.525 2.31305,137.025 4.5,136C 14.1609,135.5 23.8276,135.334 33.5,135.5C 33.3333,100.165 33.5,64.8318 34,29.5C 35.1094,27.1853 36.9427,25.6853 39.5,25C 81.1667,24.3333 122.833,24.3333 164.5,25C 166.624,26.1217 168.457,27.6217 170,29.5C 170.5,42.1623 170.667,54.8289 170.5,67.5C 282.5,67.3333 394.5,67.5 506.5,68C 508.323,68.9973 509.99,70.1639 511.5,71.5 Z M 85.5,153.5 C 221.5,153.5 357.5,153.5 493.5,153.5C 493.5,238.5 493.5,323.5 493.5,408.5C 439.5,408.5 385.5,408.5 331.5,408.5C 373.237,370.417 385.07,324.417 367,270.5C 348.02,227.539 315.187,202.706 268.5,196C 216.336,192.661 176.836,213.161 150,257.5C 131.24,294.949 130.74,332.616 148.5,370.5C 111.691,339.895 90.8582,300.561 86,252.5C 85.5,219.502 85.3334,186.502 85.5,153.5 Z"/></g>
<g><path style="opacity:1" fill="#529b8d" d="M 50.5,42.5 C 84.6626,41.5017 118.996,41.1683 153.5,41.5C 153.5,53.8333 153.5,66.1667 153.5,78.5C 152.505,66.6783 152.172,54.6783 152.5,42.5C 118.5,42.5 84.5,42.5 50.5,42.5 Z"/></g>
<g><path style="opacity:1" fill="#78bc99" d="M 50.5,42.5 C 84.5,42.5 118.5,42.5 152.5,42.5C 152.172,54.6783 152.505,66.6783 153.5,78.5C 154.228,80.7346 155.561,82.5679 157.5,84C 269.833,84.5 382.166,84.6667 494.5,84.5C 494.5,101.833 494.5,119.167 494.5,136.5C 488.833,136.5 483.167,136.5 477.5,136.5C 477.666,126.828 477.5,117.161 477,107.5C 475.749,104.619 473.583,102.786 470.5,102C 330.5,101.5 190.5,101.333 50.5,101.5C 50.5,81.8333 50.5,62.1667 50.5,42.5 Z"/></g>
<g><path style="opacity:1" fill="#a2d6a6" d="M 50.5,118.5 C 187.167,118.5 323.833,118.5 460.5,118.5C 460.5,124.5 460.5,130.5 460.5,136.5C 323.833,136.5 187.167,136.5 50.5,136.5C 50.5,130.5 50.5,124.5 50.5,118.5 Z"/></g>
<g><path style="opacity:0.996" fill="#ceef9d" d="M 85.5,153.5 C 85.3334,186.502 85.5,219.502 86,252.5C 90.8582,300.561 111.691,339.895 148.5,370.5C 180.186,421.694 225.853,441.86 285.5,431C 293.719,428.556 301.719,425.556 309.5,422C 317.056,417.729 324.39,413.229 331.5,408.5C 385.5,408.5 439.5,408.5 493.5,408.5C 494.497,428.326 494.83,448.326 494.5,468.5C 335.167,468.5 175.833,468.5 16.5,468.5C 16.5,363.5 16.5,258.5 16.5,153.5C 39.5,153.5 62.5,153.5 85.5,153.5 Z"/></g>
<g><path style="opacity:0.981" fill="#3b8686" d="M 331.5,408.5 C 324.39,413.229 317.056,417.729 309.5,422C 301.719,425.556 293.719,428.556 285.5,431C 225.853,441.86 180.186,421.694 148.5,370.5C 130.74,332.616 131.24,294.949 150,257.5C 176.836,213.161 216.336,192.661 268.5,196C 315.187,202.706 348.02,227.539 367,270.5C 385.07,324.417 373.237,370.417 331.5,408.5 Z"/></g>
<g><path style="opacity:1" fill="#78bc99" d="M 244.5,212.5 C 295.836,211.056 331.669,233.723 352,280.5C 364.896,324.087 355.063,361.587 322.5,393C 287.665,420.193 249.998,424.86 209.5,407C 167.927,383.361 149.427,347.528 154,299.5C 162.573,258.605 186.406,231.105 225.5,217C 231.95,215.415 238.283,213.915 244.5,212.5 Z"/></g>
<g><path style="opacity:1" fill="#3c8686" d="M 219.5,246.5 C 243.502,246.333 267.502,246.5 291.5,247C 295,247.833 297.167,250 298,253.5C 298.5,274.164 298.667,294.831 298.5,315.5C 308.172,315.334 317.839,315.5 327.5,316C 332.339,319.214 333.506,323.38 331,328.5C 307.5,352 284,375.5 260.5,399C 257.167,401 253.833,401 250.5,399C 227,375.5 203.5,352 180,328.5C 177.494,323.38 178.661,319.214 183.5,316C 193.161,315.5 202.828,315.334 212.5,315.5C 212.333,294.497 212.5,273.497 213,252.5C 214.494,249.686 216.66,247.686 219.5,246.5 Z"/></g>
<g><path style="opacity:1" fill="#a7daa7" d="M 281.5,325.5 C 281.84,328.675 283.507,330.841 286.5,332C 291.833,332.333 297.167,332.667 302.5,333C 286.986,348.681 271.319,364.181 255.5,379.5C 239.681,364.181 224.014,348.681 208.5,333C 213.5,332.667 218.5,332.333 223.5,332C 227.089,331.246 229.089,329.079 229.5,325.5C 230.497,305.34 230.83,285.007 230.5,264.5C 247.167,264.5 263.833,264.5 280.5,264.5C 280.17,285.007 280.503,305.34 281.5,325.5 Z"/></g>
<g><path style="opacity:1" fill="#79b699" d="M 281.5,325.5 C 280.503,305.34 280.17,285.007 280.5,264.5C 263.833,264.5 247.167,264.5 230.5,264.5C 230.83,285.007 230.497,305.34 229.5,325.5C 229.5,304.833 229.5,284.167 229.5,263.5C 246.833,263.5 264.167,263.5 281.5,263.5C 281.5,284.167 281.5,304.833 281.5,325.5 Z"/></g>
</svg>
