<?xml version="1.0" encoding="UTF-8"?>
<!DOCTYPE svg PUBLIC "-//W3C//DTD SVG 1.1//EN" "http://www.w3.org/Graphics/SVG/1.1/DTD/svg11.dtd">
<svg xmlns="http://www.w3.org/2000/svg" version="1.1" width="512px" height="512px" style="shape-rendering:geometricPrecision; text-rendering:geometricPrecision; image-rendering:optimizeQuality; fill-rule:evenodd; clip-rule:evenodd" xmlns:xlink="http://www.w3.org/1999/xlink">
<g><path style="opacity:0.991" fill="#3b8686" d="M 246.5,-0.5 C 252.5,-0.5 258.5,-0.5 264.5,-0.5C 341.456,34.1416 418.123,69.6416 494.5,106C 504.469,114.676 507.303,125.176 503,137.5C 498.101,147.707 489.934,153.041 478.5,153.5C 472.272,152.591 466.438,150.591 461,147.5C 460.5,160.496 460.333,173.496 460.5,186.5C 486.627,184.697 503.627,196.03 511.5,220.5C 511.5,232.833 511.5,245.167 511.5,257.5C 506.885,277.023 495.719,291.689 478,301.5C 476.654,316.059 471.154,328.725 461.5,339.5C 487.077,338.919 503.744,350.586 511.5,374.5C 511.5,418.833 511.5,463.167 511.5,507.5C 509.833,508.5 508.5,509.833 507.5,511.5C 447.833,511.5 388.167,511.5 328.5,511.5C 325.334,509.846 323.667,507.179 323.5,503.5C 323.5,497.167 323.5,490.833 323.5,484.5C 323.333,450.165 323.5,415.832 324,381.5C 326.515,358.152 339.349,344.819 362.5,341.5C 366.884,341.826 371.217,341.492 375.5,340.5C 375.376,339.893 375.043,339.56 374.5,339.5C 364.788,328.396 359.121,315.396 357.5,300.5C 340.194,291.576 329.361,277.576 325,258.5C 323.411,239.205 323.078,219.871 324,200.5C 326.614,193.048 331.78,188.715 339.5,187.5C 374.167,187.5 408.833,187.5 443.5,187.5C 443.5,182.5 443.5,177.5 443.5,172.5C 443.832,161.147 443.499,149.814 442.5,138.5C 384.167,111.333 325.833,84.1667 267.5,57C 260.274,54.162 252.941,53.8286 245.5,56C 186.5,83.5 127.5,111 68.5,138.5C 67.5011,150.148 67.1678,161.814 67.5,173.5C 113.564,163.798 149.397,178.465 175,217.5C 178.154,223.47 180.988,229.47 183.5,235.5C 185.204,243.76 186.537,252.093 187.5,260.5C 187.5,341.5 187.5,422.5 187.5,503.5C 187.333,507.179 185.666,509.846 182.5,511.5C 122.833,511.5 63.1667,511.5 3.5,511.5C 2.5,509.833 1.16667,508.5 -0.5,507.5C -0.5,421.833 -0.5,336.167 -0.5,250.5C 5.34896,219.479 22.0156,196.145 49.5,180.5C 50.6658,169.515 50.8324,158.515 50,147.5C 37.8641,155.663 26.0308,155.33 14.5,146.5C 5.04665,136.128 3.54665,124.795 10,112.5C 14.1863,107.326 19.3529,103.492 25.5,101C 99.0283,66.5646 172.695,32.7312 246.5,-0.5 Z"/></g>
<g><path style="opacity:1" fill="#ccee9d" d="M 249.5,16.5 C 255.402,15.962 261.068,16.7953 266.5,19C 338.954,52.3932 411.287,86.0599 483.5,120C 489.03,125.313 488.697,130.313 482.5,135C 480.167,135.667 477.833,135.667 475.5,135C 408.167,103.667 340.833,72.3333 273.5,41C 261.46,36.4031 249.46,36.4031 237.5,41C 170.167,72.3333 102.833,103.667 35.5,135C 28.8333,136.333 24.8333,133.667 23.5,127C 23.519,123.967 24.8523,121.633 27.5,120C 101.475,85.1882 175.475,50.6882 249.5,16.5 Z"/></g>
<g><path style="opacity:1" fill="#78bc99" d="M 443.5,172.5 C 443.167,172.5 442.833,172.5 442.5,172.5C 386.045,145.775 329.378,119.275 272.5,93C 264.123,89.702 255.457,88.702 246.5,90C 224.686,99.1569 203.186,108.99 182,119.5C 177.181,158.238 177.681,196.905 183.5,235.5C 180.988,229.47 178.154,223.47 175,217.5C 149.397,178.465 113.564,163.798 67.5,173.5C 67.1678,161.814 67.5011,150.148 68.5,138.5C 127.5,111 186.5,83.5 245.5,56C 252.941,53.8286 260.274,54.162 267.5,57C 325.833,84.1667 384.167,111.333 442.5,138.5C 443.499,149.814 443.832,161.147 443.5,172.5 Z"/></g>
<g><path style="opacity:1" fill="#a7daa7" d="M 442.5,172.5 C 442.5,177.167 442.5,181.833 442.5,186.5C 407.996,186.168 373.663,186.502 339.5,187.5C 331.78,188.715 326.614,193.048 324,200.5C 323.078,219.871 323.411,239.205 325,258.5C 329.361,277.576 340.194,291.576 357.5,300.5C 359.121,315.396 364.788,328.396 374.5,339.5C 370.5,340.167 366.5,340.833 362.5,341.5C 339.349,344.819 326.515,358.152 324,381.5C 323.5,415.832 323.333,450.165 323.5,484.5C 317.815,480.475 312.149,476.475 306.5,472.5C 306.667,457.83 306.5,443.163 306,428.5C 303.234,419.402 297.401,413.235 288.5,410C 296.587,399.146 299.421,386.979 297,373.5C 288.66,348.901 271.494,338.401 245.5,342C 235.109,344.588 226.776,350.088 220.5,358.5C 205.497,327.157 194.497,294.49 187.5,260.5C 186.537,252.093 185.204,243.76 183.5,235.5C 177.681,196.905 177.181,158.238 182,119.5C 203.186,108.99 224.686,99.1569 246.5,90C 255.457,88.702 264.123,89.702 272.5,93C 329.378,119.275 386.045,145.775 442.5,172.5 Z"/></g>
<g><path style="opacity:1" fill="#3b8686" d="M 209.5,110.5 C 240.168,110.333 270.835,110.5 301.5,111C 303.333,112.167 304.833,113.667 306,115.5C 306.981,141.254 306.648,166.921 305,192.5C 304.097,193.701 302.931,194.535 301.5,195C 270.081,195.985 238.748,195.651 207.5,194C 206.299,193.097 205.465,191.931 205,190.5C 204.333,165.5 204.333,140.5 205,115.5C 206.366,113.638 207.866,111.972 209.5,110.5 Z"/></g>
<g><path style="opacity:1" fill="#79bd99" d="M 221.5,127.5 C 229.833,127.5 238.167,127.5 246.5,127.5C 246.5,133.167 246.5,138.833 246.5,144.5C 238.167,144.5 229.833,144.5 221.5,144.5C 221.5,138.833 221.5,133.167 221.5,127.5 Z"/></g>
<g><path style="opacity:1" fill="#79bd99" d="M 264.5,127.5 C 272.833,127.5 281.167,127.5 289.5,127.5C 289.5,133.167 289.5,138.833 289.5,144.5C 281.167,144.5 272.833,144.5 264.5,144.5C 264.5,138.833 264.5,133.167 264.5,127.5 Z"/></g>
<g><path style="opacity:1" fill="#78bc99" d="M 221.5,161.5 C 229.833,161.5 238.167,161.5 246.5,161.5C 246.5,167.167 246.5,172.833 246.5,178.5C 238.167,178.5 229.833,178.5 221.5,178.5C 221.5,172.833 221.5,167.167 221.5,161.5 Z"/></g>
<g><path style="opacity:1" fill="#78bc99" d="M 264.5,161.5 C 272.833,161.5 281.167,161.5 289.5,161.5C 289.5,167.167 289.5,172.833 289.5,178.5C 281.167,178.5 272.833,178.5 264.5,178.5C 264.5,172.833 264.5,167.167 264.5,161.5 Z"/></g>
<g><path style="opacity:1" fill="#8cc59e" d="M 442.5,172.5 C 442.833,172.5 443.167,172.5 443.5,172.5C 443.5,177.5 443.5,182.5 443.5,187.5C 408.833,187.5 374.167,187.5 339.5,187.5C 373.663,186.502 407.996,186.168 442.5,186.5C 442.5,181.833 442.5,177.167 442.5,172.5 Z"/></g>
<g><path style="opacity:1" fill="#a7daa7" d="M 169.5,254.5 C 169.832,286.004 169.498,317.338 168.5,348.5C 166.023,346.759 163.356,345.259 160.5,344C 152.629,341.792 144.629,340.292 136.5,339.5C 145.753,329.659 151.253,317.992 153,304.5C 153.667,284.833 153.667,265.167 153,245.5C 152.214,242.417 150.381,240.251 147.5,239C 119.502,238.5 91.502,238.333 63.5,238.5C 66.4189,221.98 70.0856,205.647 74.5,189.5C 120.646,182.486 151.812,200.819 168,244.5C 168.826,247.793 169.326,251.126 169.5,254.5 Z"/></g>
<g><path style="opacity:1" fill="#78bc99" d="M 74.5,189.5 C 70.0856,205.647 66.4189,221.98 63.5,238.5C 55.16,238.334 46.8267,238.5 38.5,239C 36.1898,240.637 34.6898,242.804 34,245.5C 33.0685,267.204 33.4018,288.87 35,310.5C 37.6809,321.697 42.8476,331.531 50.5,340C 38.1915,339.415 27.0248,342.582 17,349.5C 16.3333,317.5 16.3333,285.5 17,253.5C 23.7975,220.877 42.9642,199.544 74.5,189.5 Z"/></g>
<g><path style="opacity:1" fill="#78bc99" d="M 369.5,204.5 C 372.333,216.829 377.333,228.162 384.5,238.5C 377.492,238.334 370.492,238.5 363.5,239C 360.619,240.251 358.786,242.417 358,245.5C 357.667,257.167 357.333,268.833 357,280.5C 349.736,274.303 344.736,266.636 342,257.5C 340.57,239.881 340.07,222.214 340.5,204.5C 350.167,204.5 359.833,204.5 369.5,204.5 Z"/></g>
<g><path style="opacity:1" fill="#a7daa7" d="M 369.5,204.5 C 404.502,204.333 439.502,204.5 474.5,205C 489.946,210.7 496.613,221.867 494.5,238.5C 496.151,255.392 490.651,269.392 478,280.5C 477.667,268.833 477.333,257.167 477,245.5C 476.654,243.152 475.487,241.319 473.5,240C 443.897,238.524 414.23,238.024 384.5,238.5C 377.333,228.162 372.333,216.829 369.5,204.5 Z"/></g>
<g><path style="opacity:1" fill="#a6d9a7" d="M 67.5,255.5 C 67.134,273.532 67.634,291.532 69,309.5C 72.3538,322.227 79.1871,332.561 89.5,340.5C 68.185,337.077 55.3516,324.743 51,303.5C 50.5001,287.503 50.3334,271.503 50.5,255.5C 56.1667,255.5 61.8333,255.5 67.5,255.5 Z"/></g>
<g><path style="opacity:1" fill="#ceef9d" d="M 67.5,255.5 C 90.5,255.5 113.5,255.5 136.5,255.5C 136.878,272.868 136.378,290.201 135,307.5C 128.083,329.875 112.916,340.875 89.5,340.5C 79.1871,332.561 72.3538,322.227 69,309.5C 67.634,291.532 67.134,273.532 67.5,255.5 Z"/></g>
<g><path style="opacity:1" fill="#a6d9a7" d="M 400.5,255.5 C 400.333,277.169 400.5,298.836 401,320.5C 401.798,327.384 403.964,333.718 407.5,339.5C 387.647,333.482 376.814,320.148 375,299.5C 374.5,284.837 374.333,270.17 374.5,255.5C 383.167,255.5 391.833,255.5 400.5,255.5 Z"/></g>
<g><path style="opacity:1" fill="#ceef9d" d="M 400.5,255.5 C 420.5,255.5 440.5,255.5 460.5,255.5C 460.667,271.503 460.5,287.503 460,303.5C 453.306,331.264 435.806,343.264 407.5,339.5C 403.964,333.718 401.798,327.384 401,320.5C 400.5,298.836 400.333,277.169 400.5,255.5 Z"/></g>
<g><path style="opacity:1" fill="#83bd9c" d="M 169.5,254.5 C 170.83,286.003 170.83,317.669 169.5,349.5C 168.893,349.376 168.56,349.043 168.5,348.5C 169.498,317.338 169.832,286.004 169.5,254.5 Z"/></g>
<g><path style="opacity:1" fill="#78bc99" d="M 187.5,260.5 C 194.497,294.49 205.497,327.157 220.5,358.5C 211.726,373.797 211.226,389.464 219,405.5C 220.046,407.09 221.213,408.59 222.5,410C 213.573,413.26 207.739,419.427 205,428.5C 204.832,453.67 204.332,478.67 203.5,503.5C 198.167,503.5 192.833,503.5 187.5,503.5C 187.5,422.5 187.5,341.5 187.5,260.5 Z"/></g>
<g><path style="opacity:1" fill="#66a793" d="M 374.5,339.5 C 375.043,339.56 375.376,339.893 375.5,340.5C 371.217,341.492 366.884,341.826 362.5,341.5C 366.5,340.833 370.5,340.167 374.5,339.5 Z"/></g>
<g><path style="opacity:0.998" fill="#3c8686" d="M 306.5,472.5 C 306.172,483.014 306.506,493.347 307.5,503.5C 306.656,506.678 304.989,509.345 302.5,511.5C 271.167,511.5 239.833,511.5 208.5,511.5C 206.011,509.345 204.344,506.678 203.5,503.5C 204.332,478.67 204.832,453.67 205,428.5C 207.739,419.427 213.573,413.26 222.5,410C 221.213,408.59 220.046,407.09 219,405.5C 211.226,389.464 211.726,373.797 220.5,358.5C 226.776,350.088 235.109,344.588 245.5,342C 271.494,338.401 288.66,348.901 297,373.5C 299.421,386.979 296.587,399.146 288.5,410C 297.401,413.235 303.234,419.402 306,428.5C 306.5,443.163 306.667,457.83 306.5,472.5 Z"/></g>
<g><path style="opacity:1" fill="#94c594" d="M 434.5,358.5 C 423.5,358.5 412.5,358.5 401.5,358.5C 401.5,359.5 401.5,360.5 401.5,361.5C 400.566,360.432 400.232,359.099 400.5,357.5C 412.012,357.172 423.346,357.505 434.5,358.5 Z"/></g>
<g><path style="opacity:1" fill="#78bc99" d="M 59.5,375.5 C 58.5111,370.025 58.1778,364.358 58.5,358.5C 53.8333,358.5 49.1667,358.5 44.5,358.5C 50.6241,407.208 66.2908,452.542 91.5,494.5C 77.8333,494.5 64.1667,494.5 50.5,494.5C 50.6666,470.498 50.5,446.498 50,422.5C 48.3626,420.19 46.196,418.69 43.5,418C 34.5062,417.5 25.5062,417.334 16.5,417.5C 16.3334,404.163 16.5001,390.829 17,377.5C 20.2644,367.235 27.0978,360.735 37.5,358C 44.8258,357.5 52.1591,357.334 59.5,357.5C 59.5,363.5 59.5,369.5 59.5,375.5 Z"/></g>
<g><path style="opacity:1" fill="#a6daa7" d="M 91.5,494.5 C 66.2908,452.542 50.6241,407.208 44.5,358.5C 49.1667,358.5 53.8333,358.5 58.5,358.5C 58.1778,364.358 58.5111,370.025 59.5,375.5C 59.6079,377.783 60.4412,379.783 62,381.5C 69.3333,388.833 76.6667,396.167 84,403.5C 84.3333,417.167 84.6667,430.833 85,444.5C 86.6715,450.507 90.5049,452.673 96.5,451C 98.6667,450.167 100.167,448.667 101,446.5C 101.333,432.167 101.667,417.833 102,403.5C 110.333,395.167 118.667,386.833 127,378.5C 127.5,371.508 127.666,364.508 127.5,357.5C 134.175,357.334 140.842,357.5 147.5,358C 159.29,360.142 166.79,366.975 170,378.5C 170.5,391.496 170.667,404.496 170.5,417.5C 160.828,417.334 151.161,417.5 141.5,418C 139.43,418.948 137.93,420.448 137,422.5C 136.5,446.498 136.333,470.498 136.5,494.5C 121.5,494.5 106.5,494.5 91.5,494.5 Z"/></g>
<g><path style="opacity:1" fill="#cbed9d" d="M 76.5,357.5 C 87.8333,357.5 99.1667,357.5 110.5,357.5C 110.666,362.179 110.499,366.845 110,371.5C 104.623,377.212 98.9566,382.545 93,387.5C 87.377,382.879 82.0437,377.879 77,372.5C 76.5007,367.511 76.3341,362.511 76.5,357.5 Z"/></g>
<g><path style="opacity:1" fill="#cdef9d" d="M 265.5,406.5 C 254.012,393.049 248.012,377.382 247.5,359.5C 262.701,355.85 273.535,361.184 280,375.5C 283.143,389.871 278.309,400.204 265.5,406.5 Z"/></g>
<g><path style="opacity:1" fill="#78bc99" d="M 383.5,358.5 C 378.489,358.334 373.489,358.501 368.5,359C 374.881,407.648 390.881,452.815 416.5,494.5C 402.5,494.5 388.5,494.5 374.5,494.5C 374.667,470.498 374.5,446.498 374,422.5C 372.661,419.906 370.494,418.406 367.5,418C 358.506,417.5 349.506,417.334 340.5,417.5C 340.333,404.496 340.5,391.496 341,378.5C 346.251,363.111 357.084,356.111 373.5,357.5C 377.018,357.502 380.351,357.835 383.5,358.5 Z"/></g>
<g><path style="opacity:1" fill="#a7daa7" d="M 416.5,494.5 C 390.881,452.815 374.881,407.648 368.5,359C 373.489,358.501 378.489,358.334 383.5,358.5C 385.689,379.023 397.022,390.023 417.5,391.5C 438.514,389.82 449.847,378.486 451.5,357.5C 459.571,357.137 467.571,357.637 475.5,359C 485,361.833 491.167,368 494,377.5C 494.5,390.829 494.667,404.163 494.5,417.5C 485.494,417.334 476.494,417.5 467.5,418C 464.804,418.69 462.637,420.19 461,422.5C 460.5,446.498 460.333,470.498 460.5,494.5C 445.833,494.5 431.167,494.5 416.5,494.5 Z"/></g>
<g><path style="opacity:1" fill="#cdee9d" d="M 434.5,358.5 C 431.703,372.572 423.37,377.405 409.5,373C 404.728,370.62 402.061,366.787 401.5,361.5C 401.5,360.5 401.5,359.5 401.5,358.5C 412.5,358.5 423.5,358.5 434.5,358.5 Z"/></g>
<g><path style="opacity:1" fill="#a7daa7" d="M 247.5,359.5 C 248.012,377.382 254.012,393.049 265.5,406.5C 250.634,411.821 239.468,407.487 232,393.5C 227.22,377.405 232.386,366.072 247.5,359.5 Z"/></g>
<g><path style="opacity:1" fill="#a7daa7" d="M 239.5,426.5 C 241.906,450.799 249.239,473.466 261.5,494.5C 248.167,494.5 234.833,494.5 221.5,494.5C 221.333,473.497 221.5,452.497 222,431.5C 222.833,429.333 224.333,427.833 226.5,427C 230.821,426.501 235.154,426.334 239.5,426.5 Z"/></g>
<g><path style="opacity:1" fill="#ceef9d" d="M 239.5,426.5 C 254.504,426.333 269.504,426.5 284.5,427C 285.931,427.465 287.097,428.299 288,429.5C 289.478,451.075 289.978,472.742 289.5,494.5C 280.167,494.5 270.833,494.5 261.5,494.5C 249.239,473.466 241.906,450.799 239.5,426.5 Z"/></g>
<g><path style="opacity:1" fill="#a7daa7" d="M 16.5,434.5 C 22.1667,434.5 27.8333,434.5 33.5,434.5C 33.5,454.5 33.5,474.5 33.5,494.5C 27.8333,494.5 22.1667,494.5 16.5,494.5C 16.5,474.5 16.5,454.5 16.5,434.5 Z"/></g>
<g><path style="opacity:1" fill="#96c794" d="M 169.5,494.5 C 169.5,474.833 169.5,455.167 169.5,435.5C 164.167,435.5 158.833,435.5 153.5,435.5C 153.5,455.167 153.5,474.833 153.5,494.5C 152.503,474.674 152.17,454.674 152.5,434.5C 158.5,434.5 164.5,434.5 170.5,434.5C 170.83,454.674 170.497,474.674 169.5,494.5 Z"/></g>
<g><path style="opacity:1" fill="#ceef9d" d="M 169.5,494.5 C 164.167,494.5 158.833,494.5 153.5,494.5C 153.5,474.833 153.5,455.167 153.5,435.5C 158.833,435.5 164.167,435.5 169.5,435.5C 169.5,455.167 169.5,474.833 169.5,494.5 Z"/></g>
<g><path style="opacity:1" fill="#7bb89a" d="M 357.5,494.5 C 357.5,474.833 357.5,455.167 357.5,435.5C 352.167,435.5 346.833,435.5 341.5,435.5C 341.5,455.167 341.5,474.833 341.5,494.5C 340.503,474.674 340.17,454.674 340.5,434.5C 346.5,434.5 352.5,434.5 358.5,434.5C 358.83,454.674 358.497,474.674 357.5,494.5 Z"/></g>
<g><path style="opacity:1" fill="#a7daa7" d="M 357.5,494.5 C 352.167,494.5 346.833,494.5 341.5,494.5C 341.5,474.833 341.5,455.167 341.5,435.5C 346.833,435.5 352.167,435.5 357.5,435.5C 357.5,455.167 357.5,474.833 357.5,494.5 Z"/></g>
<g><path style="opacity:1" fill="#cdef9d" d="M 477.5,434.5 C 483.167,434.5 488.833,434.5 494.5,434.5C 494.5,454.5 494.5,474.5 494.5,494.5C 488.833,494.5 483.167,494.5 477.5,494.5C 477.5,474.5 477.5,454.5 477.5,434.5 Z"/></g>
<g><path style="opacity:1" fill="#79bc9a" d="M 306.5,472.5 C 312.149,476.475 317.815,480.475 323.5,484.5C 323.5,490.833 323.5,497.167 323.5,503.5C 318.167,503.5 312.833,503.5 307.5,503.5C 306.506,493.347 306.172,483.014 306.5,472.5 Z"/></g>
</svg>
