<?xml version="1.0" encoding="UTF-8"?>
<!DOCTYPE svg PUBLIC "-//W3C//DTD SVG 1.1//EN" "http://www.w3.org/Graphics/SVG/1.1/DTD/svg11.dtd">
<svg xmlns="http://www.w3.org/2000/svg" version="1.1" width="512px" height="512px" style="shape-rendering:geometricPrecision; text-rendering:geometricPrecision; image-rendering:optimizeQuality; fill-rule:evenodd; clip-rule:evenodd" xmlns:xlink="http://www.w3.org/1999/xlink">
<g><path style="opacity:0.994" fill="#3b8686" d="M 86.5,63.5 C 121.215,63.027 155.882,63.527 190.5,65C 197.417,66.8565 203.75,69.8565 209.5,74C 223.167,84.3333 236.833,94.6667 250.5,105C 254.531,107.455 258.864,109.121 263.5,110C 330.476,111.306 397.476,111.972 464.5,112C 480.667,116.167 490.833,126.333 495,142.5C 495.992,251.21 495.658,359.876 494,468.5C 488.894,482.606 479.061,491.44 464.5,495C 325.167,495.667 185.833,495.667 46.5,495C 30.3333,490.833 20.1667,480.667 16,464.5C 15.3333,378.5 15.3333,292.5 16,206.5C 21.5705,186.467 34.7372,176.134 55.5,175.5C 55.0334,147.116 55.5334,118.783 57,90.5C 62.2814,76.3797 72.1147,67.3797 86.5,63.5 Z M 111.5,79.5 C 132.836,79.3334 154.169,79.5 175.5,80C 184.323,80.2743 192.323,82.9409 199.5,88C 213.167,98.3333 226.833,108.667 240.5,119C 246.726,122.78 253.393,125.447 260.5,127C 327.86,127.024 395.194,127.691 462.5,129C 472.721,133.05 478.054,140.55 478.5,151.5C 462.833,151.5 447.167,151.5 431.5,151.5C 431.854,148.039 430.521,145.539 427.5,144C 333.167,143.5 238.834,143.333 144.5,143.5C 121.4,128.639 110.4,107.305 111.5,79.5 Z M 119.5,191.5 C 231.5,191.333 343.5,191.5 455.5,192C 469.65,193.483 477.483,201.317 479,215.5C 479.5,276.832 479.667,338.166 479.5,399.5C 452.833,399.5 426.167,399.5 399.5,399.5C 399.667,357.165 399.5,314.832 399,272.5C 396.167,264.333 390.667,258.833 382.5,256C 297.833,255.333 213.167,255.333 128.5,256C 125.69,256.906 123.024,258.073 120.5,259.5C 119.542,236.86 119.209,214.193 119.5,191.5 Z"/></g>
<g><path style="opacity:0.995" fill="#ceef9e" d="M 111.5,79.5 C 110.4,107.305 121.4,128.639 144.5,143.5C 129.07,143.032 113.737,143.532 98.5,145C 97.2986,145.903 96.4652,147.069 96,148.5C 95.5002,157.494 95.3336,166.494 95.5,175.5C 87.5,175.5 79.5,175.5 71.5,175.5C 71.0262,148.436 71.5262,121.436 73,94.5C 76.1667,88.6667 80.6667,84.1667 86.5,81C 94.7492,79.5943 103.083,79.0943 111.5,79.5 Z"/></g>
<g><path style="opacity:1" fill="#ceef9d" d="M 431.5,151.5 C 447.167,151.5 462.833,151.5 478.5,151.5C 479.659,161.992 479.825,172.659 479,183.5C 474.057,179.849 468.557,177.349 462.5,176C 452.172,175.5 441.839,175.334 431.5,175.5C 431.5,167.5 431.5,159.5 431.5,151.5 Z"/></g>
<g><path style="opacity:1" fill="#79bd99" d="M 111.5,159.5 C 212.833,159.5 314.167,159.5 415.5,159.5C 415.5,164.833 415.5,170.167 415.5,175.5C 314.167,175.5 212.833,175.5 111.5,175.5C 111.5,170.167 111.5,164.833 111.5,159.5 Z"/></g>
<g><path style="opacity:1" fill="#ceef9d" d="M 119.5,191.5 C 119.209,214.193 119.542,236.86 120.5,259.5C 116.911,263.672 114.078,268.339 112,273.5C 111.333,319.833 111.333,366.167 112,412.5C 114.739,421.573 120.573,427.74 129.5,431C 213.167,431.667 296.833,431.667 380.5,431C 395.094,425.667 401.427,415.167 399.5,399.5C 426.167,399.5 452.833,399.5 479.5,399.5C 479.667,419.836 479.5,440.169 479,460.5C 476.167,470 470,476.167 460.5,479C 323.5,479.667 186.5,479.667 49.5,479C 40.5725,475.74 34.7392,469.573 32,460.5C 31.3333,376.833 31.3333,293.167 32,209.5C 35.1667,201 41,195.167 49.5,192C 72.831,191.5 96.1643,191.333 119.5,191.5 Z"/></g>
<g><path style="opacity:0.999" fill="#3b8686" d="M 399.5,399.5 C 401.427,415.167 395.094,425.667 380.5,431C 296.833,431.667 213.167,431.667 129.5,431C 120.573,427.74 114.739,421.573 112,412.5C 111.333,366.167 111.333,319.833 112,273.5C 114.078,268.339 116.911,263.672 120.5,259.5C 123.024,258.073 125.69,256.906 128.5,256C 213.167,255.333 297.833,255.333 382.5,256C 390.667,258.833 396.167,264.333 399,272.5C 399.5,314.832 399.667,357.165 399.5,399.5 Z"/></g>
<g><path style="opacity:1" fill="#a7daa7" d="M 132.5,271.5 C 215.224,271.008 297.891,271.508 380.5,273C 381.701,273.903 382.535,275.069 383,276.5C 383.985,321.892 383.651,367.226 382,412.5C 380.829,413.893 379.329,414.727 377.5,415C 295.085,415.994 212.752,415.661 130.5,414C 129.107,412.829 128.273,411.329 128,409.5C 127.333,365.167 127.333,320.833 128,276.5C 129.025,274.313 130.525,272.646 132.5,271.5 Z"/></g>
<g><path style="opacity:1" fill="#3b8686" d="M 196.5,295.5 C 246.168,295.333 295.834,295.5 345.5,296C 351.448,298.433 352.948,302.6 350,308.5C 348.829,309.893 347.329,310.727 345.5,311C 295.833,311.667 246.167,311.667 196.5,311C 191.465,307.987 190.298,303.82 193,298.5C 194.145,297.364 195.312,296.364 196.5,295.5 Z"/></g>
<g><path style="opacity:1" fill="#3b8686" d="M 164.5,335.5 C 224.834,335.333 285.168,335.5 345.5,336C 351.448,338.433 352.948,342.6 350,348.5C 348.829,349.893 347.329,350.727 345.5,351C 285.167,351.667 224.833,351.667 164.5,351C 159.465,347.987 158.298,343.82 161,338.5C 162.145,337.364 163.312,336.364 164.5,335.5 Z"/></g>
<g><path style="opacity:1" fill="#3b8686" d="M 164.5,375.5 C 211.501,375.333 258.501,375.5 305.5,376C 311.448,378.433 312.948,382.6 310,388.5C 308.829,389.893 307.329,390.727 305.5,391C 258.5,391.667 211.5,391.667 164.5,391C 159.465,387.987 158.298,383.82 161,378.5C 162.145,377.364 163.312,376.364 164.5,375.5 Z"/></g>
</svg>
