<?xml version="1.0" encoding="UTF-8"?>
<!DOCTYPE svg PUBLIC "-//W3C//DTD SVG 1.1//EN" "http://www.w3.org/Graphics/SVG/1.1/DTD/svg11.dtd">
<svg xmlns="http://www.w3.org/2000/svg" version="1.1" width="512px" height="512px" style="shape-rendering:geometricPrecision; text-rendering:geometricPrecision; image-rendering:optimizeQuality; fill-rule:evenodd; clip-rule:evenodd" xmlns:xlink="http://www.w3.org/1999/xlink">
<g><path style="opacity:0.985" fill="#3b8686" d="M 439.5,488.5 C 438.181,449.811 436.347,411.145 434,372.5C 423.876,335.903 399.709,318.236 361.5,319.5C 356.5,319.667 351.5,319.833 346.5,320C 328.5,340.667 310.5,361.333 292.5,382C 289.134,383.879 285.8,383.879 282.5,382C 273.642,374.975 264.642,368.141 255.5,361.5C 246.358,368.141 237.358,374.975 228.5,382C 225.134,383.879 221.8,383.879 218.5,382C 200.5,361.333 182.5,340.667 164.5,320C 135.101,314.047 110.268,321.88 90,343.5C 80.9703,355.253 76.3037,368.587 76,383.5C 74.3183,418.497 72.8183,453.497 71.5,488.5C 71.5557,491.561 70.2224,493.728 67.5,495C 64.0357,495.817 60.7024,495.483 57.5,494C 56.8742,493.25 56.3742,492.416 56,491.5C 56.3961,450.785 58.0628,410.119 61,369.5C 68.9479,333.219 91.1146,311.385 127.5,304C 139.833,303.667 152.167,303.333 164.5,303C 172.167,298 179.833,293 187.5,288C 190.167,287.333 192.833,287.333 195.5,288C 197.055,289.289 198.721,289.956 200.5,290C 203.075,285.944 205.075,281.611 206.5,277C 190.355,262.217 178.021,244.717 169.5,224.5C 159.866,223.433 152.033,219.1 146,211.5C 134.924,196.842 128.424,180.342 126.5,162C 126.943,154.829 129.609,148.662 134.5,143.5C 110.964,99.2669 114.464,57.2669 145,17.5C 146.907,16.0702 149.074,15.4035 151.5,15.5C 162.443,19.0918 173.443,22.5918 184.5,26C 194.121,27.4907 203.788,27.8241 213.5,27C 233.186,23.7746 252.852,20.4413 272.5,17C 321.018,12.4998 355.852,31.9998 377,75.5C 385.079,98.8647 385.579,122.365 378.5,146C 380.652,148.469 382.152,151.302 383,154.5C 384.536,180.91 375.369,202.743 355.5,220C 351.203,222.622 346.536,224.122 341.5,224.5C 332.979,244.717 320.645,262.217 304.5,277C 305.947,281.563 307.947,285.896 310.5,290C 312.279,289.956 313.945,289.289 315.5,288C 318.167,287.333 320.833,287.333 323.5,288C 331.167,293 338.833,298 346.5,303C 358.833,303.333 371.167,303.667 383.5,304C 419.885,311.385 442.052,333.219 450,369.5C 452.903,410.12 454.569,450.787 455,491.5C 454.626,492.416 454.126,493.25 453.5,494C 449.219,496.109 445.052,495.942 441,493.5C 439.991,491.975 439.491,490.308 439.5,488.5 Z"/></g>
<g><path style="opacity:1" fill="#78bc99" d="M 274.5,32.5 C 315.21,29.4267 344.377,46.0933 362,82.5C 368.396,100.553 369.23,118.887 364.5,137.5C 351.536,136.092 338.536,134.925 325.5,134C 298.29,127.74 276.956,113.073 261.5,90C 257.426,86.774 253.426,86.774 249.5,90C 225.093,124.197 191.759,139.53 149.5,136C 146.643,131.954 144.31,127.62 142.5,123C 151.941,122.445 161.275,121.112 170.5,119C 174.861,116.774 176.361,113.274 175,108.5C 173.132,105.566 170.466,103.899 167,103.5C 156.928,106.115 146.761,106.782 136.5,105.5C 132.98,85.2044 135.814,65.871 145,47.5C 147.583,42.2575 150.917,37.5908 155,33.5C 178.861,45.0781 203.695,47.5781 229.5,41C 244.681,38.3851 259.681,35.5518 274.5,32.5 Z"/></g>
<g><path style="opacity:1" fill="#3c8786" d="M 284.5,63.5 C 287.271,63.4207 289.937,63.9207 292.5,65C 300.554,80.0536 312.22,91.387 327.5,99C 332.728,100.974 338.062,102.641 343.5,104C 346.769,107.453 347.269,111.286 345,115.5C 340.573,118.987 335.74,119.487 330.5,117C 307.645,109.989 290.812,95.8225 280,74.5C 278.776,69.626 280.276,65.9593 284.5,63.5 Z"/></g>
<g><path style="opacity:1" fill="#cdee9e" d="M 335.5,166.5 C 329.697,166.791 324.031,166.125 318.5,164.5C 320.259,160.217 319.592,156.383 316.5,153C 306.18,149.108 295.513,147.608 284.5,148.5C 281.379,146.552 278.379,144.385 275.5,142C 268.708,134.887 262.041,127.72 255.5,120.5C 248.959,127.72 242.292,134.887 235.5,142C 232.621,144.385 229.621,146.552 226.5,148.5C 215.456,147.537 204.789,149.037 194.5,153C 190.5,157.333 190.5,161.667 194.5,166C 196.345,167.128 198.345,167.628 200.5,167.5C 202.946,191.854 211.28,213.854 225.5,233.5C 223.132,237.052 222.965,240.719 225,244.5C 230.454,248.931 236.621,251.931 243.5,253.5C 254.534,264.346 267.868,270.346 283.5,271.5C 262.792,282.745 242.459,281.911 222.5,269C 194.197,245.563 178.697,215.397 176,178.5C 175.5,169.173 175.334,159.839 175.5,150.5C 208.346,148.079 235.013,134.079 255.5,108.5C 276.032,134.1 302.699,148.1 335.5,150.5C 335.5,155.833 335.5,161.167 335.5,166.5 Z"/></g>
<g><path style="opacity:1" fill="#fdfefd" d="M 284.5,148.5 C 279.498,148.506 275.332,150.506 272,154.5C 270.798,158.793 271.965,162.293 275.5,165C 287.286,163.842 298.953,164.675 310.5,167.5C 313.517,167.274 316.184,166.274 318.5,164.5C 324.031,166.125 329.697,166.791 335.5,166.5C 335.604,205.447 321.604,238.281 293.5,265C 290.536,267.81 287.202,269.976 283.5,271.5C 267.868,270.346 254.534,264.346 243.5,253.5C 258.189,256.386 271.856,253.886 284.5,246C 287.769,242.547 288.269,238.714 286,234.5C 284.278,232.556 282.111,231.556 279.5,231.5C 274.331,233.913 268.997,236.08 263.5,238C 258.167,238.667 252.833,238.667 247.5,238C 242.003,236.08 236.669,233.913 231.5,231.5C 229.286,231.611 227.286,232.278 225.5,233.5C 211.28,213.854 202.946,191.854 200.5,167.5C 216.361,162.551 231.694,163.884 246.5,171.5C 246.438,183.637 241.938,193.97 233,202.5C 230.899,206.665 231.399,210.498 234.5,214C 240.5,217 246.5,220 252.5,223C 260.667,224.167 264.167,220.667 263,212.5C 262.535,211.069 261.701,209.903 260.5,209C 257.671,207.753 255.005,206.253 252.5,204.5C 260.397,192.312 263.897,178.978 263,164.5C 262.535,163.069 261.701,161.903 260.5,161C 249.962,154.376 238.629,150.21 226.5,148.5C 229.621,146.552 232.621,144.385 235.5,142C 242.292,134.887 248.959,127.72 255.5,120.5C 262.041,127.72 268.708,134.887 275.5,142C 278.379,144.385 281.379,146.552 284.5,148.5 Z"/></g>
<g><path style="opacity:1" fill="#3e8787" d="M 226.5,148.5 C 238.629,150.21 249.962,154.376 260.5,161C 261.701,161.903 262.535,163.069 263,164.5C 263.897,178.978 260.397,192.312 252.5,204.5C 255.005,206.253 257.671,207.753 260.5,209C 261.701,209.903 262.535,211.069 263,212.5C 264.167,220.667 260.667,224.167 252.5,223C 246.5,220 240.5,217 234.5,214C 231.399,210.498 230.899,206.665 233,202.5C 241.938,193.97 246.438,183.637 246.5,171.5C 231.694,163.884 216.361,162.551 200.5,167.5C 198.345,167.628 196.345,167.128 194.5,166C 190.5,161.667 190.5,157.333 194.5,153C 204.789,149.037 215.456,147.537 226.5,148.5 Z"/></g>
<g><path style="opacity:1" fill="#3f8887" d="M 284.5,148.5 C 295.513,147.608 306.18,149.108 316.5,153C 319.592,156.383 320.259,160.217 318.5,164.5C 316.184,166.274 313.517,167.274 310.5,167.5C 298.953,164.675 287.286,163.842 275.5,165C 271.965,162.293 270.798,158.793 272,154.5C 275.332,150.506 279.498,148.506 284.5,148.5 Z"/></g>
<g><path style="opacity:1" fill="#fafcfb" d="M 159.5,165.5 C 157.774,172.951 154.441,179.618 149.5,185.5C 145.598,176.896 143.764,167.896 144,158.5C 147.805,153.407 152.972,151.073 159.5,151.5C 159.5,156.167 159.5,160.833 159.5,165.5 Z"/></g>
<g><path style="opacity:1" fill="#fbfdfc" d="M 361.5,185.5 C 356.271,179.376 352.937,172.376 351.5,164.5C 351.5,160.5 351.5,156.5 351.5,152.5C 364.067,150.898 369.234,156.232 367,168.5C 365.458,174.293 363.624,179.96 361.5,185.5 Z"/></g>
<g><path style="opacity:1" fill="#caec9e" d="M 159.5,165.5 C 159.747,178.632 160.914,191.632 163,204.5C 157.116,199.121 152.616,192.788 149.5,185.5C 154.441,179.618 157.774,172.951 159.5,165.5 Z"/></g>
<g><path style="opacity:1" fill="#cbed9f" d="M 351.5,164.5 C 352.937,172.376 356.271,179.376 361.5,185.5C 358.384,192.788 353.884,199.121 348,204.5C 350.219,191.342 351.386,178.008 351.5,164.5 Z"/></g>
<g><path style="opacity:1" fill="#438a8a" d="M 212.5,175.5 C 220.658,174.823 224.158,178.49 223,186.5C 220.774,190.861 217.274,192.361 212.5,191C 208.139,188.774 206.639,185.274 208,180.5C 209.025,178.313 210.525,176.646 212.5,175.5 Z"/></g>
<g><path style="opacity:1" fill="#438a8a" d="M 292.5,175.5 C 300.658,174.823 304.158,178.49 303,186.5C 300.774,190.861 297.274,192.361 292.5,191C 288.139,188.774 286.639,185.274 288,180.5C 289.025,178.313 290.525,176.646 292.5,175.5 Z"/></g>
<g><path style="opacity:1" fill="#3e8887" d="M 243.5,253.5 C 236.621,251.931 230.454,248.931 225,244.5C 222.965,240.719 223.132,237.052 225.5,233.5C 227.286,232.278 229.286,231.611 231.5,231.5C 236.669,233.913 242.003,236.08 247.5,238C 252.833,238.667 258.167,238.667 263.5,238C 268.997,236.08 274.331,233.913 279.5,231.5C 282.111,231.556 284.278,232.556 286,234.5C 288.269,238.714 287.769,242.547 284.5,246C 271.856,253.886 258.189,256.386 243.5,253.5 Z"/></g>
<g><path style="opacity:1" fill="#cdee9e" d="M 273.5,293.5 C 264.9,298.591 255.566,301.925 245.5,303.5C 253.319,312.905 262.986,319.571 274.5,323.5C 268.51,329.486 262.177,335.153 255.5,340.5C 240.562,328.529 226.229,315.862 212.5,302.5C 216.112,297.611 218.945,292.277 221,286.5C 237.524,295.663 255.024,297.996 273.5,293.5 Z"/></g>
<g><path style="opacity:1" fill="#fcfdfc" d="M 274.5,323.5 C 262.986,319.571 253.319,312.905 245.5,303.5C 255.566,301.925 264.9,298.591 273.5,293.5C 278.932,291.571 284.265,289.238 289.5,286.5C 291.979,292.125 294.979,297.458 298.5,302.5C 291.098,310.239 283.098,317.239 274.5,323.5 Z"/></g>
<g><path style="opacity:1" fill="#a6d9a7" d="M 189.5,305.5 C 207.57,320.06 225.236,335.227 242.5,351C 236.641,355.692 230.641,360.192 224.5,364.5C 209.686,347.185 194.686,330.019 179.5,313C 183.3,311.021 186.634,308.521 189.5,305.5 Z"/></g>
<g><path style="opacity:1" fill="#a6d9a7" d="M 318.5,306.5 C 323.31,307.572 327.643,309.738 331.5,313C 316.333,330.167 301.167,347.333 286,364.5C 280.167,360 274.333,355.5 268.5,351C 285.361,336.301 302.028,321.468 318.5,306.5 Z"/></g>
<g><path style="opacity:1" fill="#78bc99" d="M 439.5,488.5 C 426.246,487.519 412.913,487.186 399.5,487.5C 394.326,457.121 388.826,426.788 383,396.5C 379.911,391.695 375.744,390.528 370.5,393C 369.299,393.903 368.465,395.069 368,396.5C 362.174,426.788 356.674,457.121 351.5,487.5C 287.5,487.5 223.5,487.5 159.5,487.5C 154.326,457.121 148.826,426.788 143,396.5C 139.911,391.695 135.744,390.528 130.5,393C 129.299,393.903 128.465,395.069 128,396.5C 122.174,426.788 116.674,457.121 111.5,487.5C 98.0875,487.186 84.7541,487.519 71.5,488.5C 72.8183,453.497 74.3183,418.497 76,383.5C 76.3037,368.587 80.9703,355.253 90,343.5C 110.268,321.88 135.101,314.047 164.5,320C 182.5,340.667 200.5,361.333 218.5,382C 221.8,383.879 225.134,383.879 228.5,382C 237.358,374.975 246.358,368.141 255.5,361.5C 264.642,368.141 273.642,374.975 282.5,382C 285.8,383.879 289.134,383.879 292.5,382C 310.5,361.333 328.5,340.667 346.5,320C 351.5,319.833 356.5,319.667 361.5,319.5C 399.709,318.236 423.876,335.903 434,372.5C 436.347,411.145 438.181,449.811 439.5,488.5 Z"/></g>
<g><path style="opacity:1" fill="#3d8886" d="M 252.5,383.5 C 263.167,384.003 265.833,388.836 260.5,398C 251.42,401.215 247.253,398.048 248,388.5C 249.025,386.313 250.525,384.646 252.5,383.5 Z"/></g>
<g><path style="opacity:0.984" fill="#3b8686" d="M 159.5,487.5 C 158.748,494.726 154.748,497.226 147.5,495C 146.584,494.626 145.75,494.126 145,493.5C 141.406,479.275 138.24,464.942 135.5,450.5C 132.76,464.942 129.594,479.275 126,493.5C 121.667,496.167 117.333,496.167 113,493.5C 111.872,491.655 111.372,489.655 111.5,487.5C 116.674,457.121 122.174,426.788 128,396.5C 128.465,395.069 129.299,393.903 130.5,393C 135.744,390.528 139.911,391.695 143,396.5C 148.826,426.788 154.326,457.121 159.5,487.5 Z"/></g>
<g><path style="opacity:0.984" fill="#3b8686" d="M 399.5,487.5 C 398.748,494.726 394.748,497.226 387.5,495C 386.584,494.626 385.75,494.126 385,493.5C 381.406,479.275 378.24,464.942 375.5,450.5C 372.76,464.942 369.594,479.275 366,493.5C 361.667,496.167 357.333,496.167 353,493.5C 351.872,491.655 351.372,489.655 351.5,487.5C 356.674,457.121 362.174,426.788 368,396.5C 368.465,395.069 369.299,393.903 370.5,393C 375.744,390.528 379.911,391.695 383,396.5C 388.826,426.788 394.326,457.121 399.5,487.5 Z"/></g>
<g><path style="opacity:1" fill="#3b8686" d="M 300.5,415.5 C 312.838,415.333 325.171,415.5 337.5,416C 343.462,418.405 344.962,422.571 342,428.5C 340.829,429.893 339.329,430.727 337.5,431C 325.167,431.667 312.833,431.667 300.5,431C 293.889,425.798 293.889,420.631 300.5,415.5 Z"/></g>
<g><path style="opacity:1" fill="#3d8886" d="M 252.5,419.5 C 262.034,419.244 265.201,423.578 262,432.5C 257.667,436.5 253.333,436.5 249,432.5C 246.325,427.011 247.492,422.678 252.5,419.5 Z"/></g>
<g><path style="opacity:1" fill="#3d8886" d="M 252.5,455.5 C 262.034,455.244 265.201,459.578 262,468.5C 257.667,472.5 253.333,472.5 249,468.5C 246.325,463.011 247.492,458.678 252.5,455.5 Z"/></g>
</svg>
