<?xml version="1.0" encoding="UTF-8"?>
<!DOCTYPE svg PUBLIC "-//W3C//DTD SVG 1.1//EN" "http://www.w3.org/Graphics/SVG/1.1/DTD/svg11.dtd">
<svg xmlns="http://www.w3.org/2000/svg" version="1.1" width="512px" height="512px" style="shape-rendering:geometricPrecision; text-rendering:geometricPrecision; image-rendering:optimizeQuality; fill-rule:evenodd; clip-rule:evenodd" xmlns:xlink="http://www.w3.org/1999/xlink">
<g><path style="opacity:0.985" fill="#3a8686" d="M 251.5,31.5 C 254.187,31.3359 256.854,31.5026 259.5,32C 261.333,32.5 262.5,33.6667 263,35.5C 263.667,56.8333 263.667,78.1667 263,99.5C 261.471,102.516 258.971,103.849 255.5,103.5C 252.029,103.849 249.529,102.516 248,99.5C 247.333,78.1667 247.333,56.8333 248,35.5C 248.69,33.6498 249.856,32.3164 251.5,31.5 Z"/></g>
<g><path style="opacity:0.942" fill="#3a8585" d="M 187.5,47.5 C 191.257,47.0708 194.757,47.7375 198,49.5C 208.667,65.5 219.333,81.5 230,97.5C 233.667,110.167 229.333,114.167 217,109.5C 206,92.8333 195,76.1667 184,59.5C 182.593,54.556 183.759,50.556 187.5,47.5 Z"/></g>
<g><path style="opacity:0.943" fill="#3b8686" d="M 315.5,47.5 C 326.485,46.4569 329.985,51.1235 326,61.5C 315.333,77.5 304.667,93.5 294,109.5C 281.667,114.167 277.333,110.167 281,97.5C 292.288,80.5559 303.788,63.8892 315.5,47.5 Z"/></g>
<g><path style="opacity:0.938" fill="#3a8686" d="M 147.5,87.5 C 150.187,87.3359 152.854,87.5026 155.5,88C 166.833,93.6667 178.167,99.3333 189.5,105C 194.205,115.613 190.872,120.28 179.5,119C 168.167,113.333 156.833,107.667 145.5,102C 143.571,98.7441 143.071,95.2441 144,91.5C 144.69,89.6498 145.856,88.3164 147.5,87.5 Z"/></g>
<g><path style="opacity:0.938" fill="#3b8686" d="M 355.5,87.5 C 366.86,86.71 370.193,91.5434 365.5,102C 354.167,107.667 342.833,113.333 331.5,119C 324.388,121.115 320.055,118.615 318.5,111.5C 319.214,109.189 320.214,107.022 321.5,105C 333.051,99.3923 344.384,93.559 355.5,87.5 Z"/></g>
<g><path style="opacity:0.987" fill="#3c8686" d="M 432.5,111.5 C 445.856,109.671 456.689,114.005 465,124.5C 474.15,137.59 480.817,151.923 485,167.5C 494.564,205.269 497.898,243.603 495,282.5C 493.514,314.605 486.18,345.272 473,374.5C 467.331,386.172 458.498,394.338 446.5,399C 434.042,401.269 423.709,397.603 415.5,388C 361.357,359.547 303.69,345.047 242.5,344.5C 242.246,358.509 236.579,369.676 225.5,378C 233.245,396.993 241.412,415.826 250,434.5C 256.041,443.899 263.041,452.565 271,460.5C 274.476,470.072 271.976,477.572 263.5,483C 251.229,487.202 238.895,491.202 226.5,495C 208.917,497.923 194.75,492.423 184,478.5C 171.781,450.729 160.115,422.729 149,394.5C 135.072,390.908 125.072,382.574 119,369.5C 116.197,360.758 113.197,352.092 110,343.5C 102.393,341.529 96.06,337.529 91,331.5C 87.3582,325.048 83.8582,318.548 80.5,312C 68.5,311.667 56.5,311.333 44.5,311C 36.263,308.469 29.763,303.635 25,296.5C 15.1587,276.026 12.8254,254.693 18,232.5C 20.1743,220.633 26.0077,211.133 35.5,204C 38.3821,202.392 41.3821,201.059 44.5,200C 56.5,199.667 68.5,199.333 80.5,199C 83.8728,192.42 87.3728,185.92 91,179.5C 95.0374,174.898 99.8707,171.398 105.5,169C 115.42,167.577 125.42,167.077 135.5,167.5C 132.705,152.248 138.372,141.748 152.5,136C 167.833,135.333 183.167,135.333 198.5,136C 212.628,141.748 218.295,152.248 215.5,167.5C 286.138,170.207 352.804,155.374 415.5,123C 420.273,117.707 425.939,113.874 432.5,111.5 Z"/></g>
<g><path style="opacity:1" fill="#fdfefe" d="M 464.5,351.5 C 454.86,350.376 447.36,345.709 442,337.5C 435.563,327.284 430.729,316.284 427.5,304.5C 448.389,291.384 457.555,272.384 455,247.5C 451.141,224.151 437.974,209.151 415.5,202.5C 416.326,181.563 418.993,160.896 423.5,140.5C 432.302,124.501 442.469,123.501 454,137.5C 463.823,154.3 470.49,172.3 474,191.5C 481.946,238.68 480.946,285.68 471,332.5C 468.923,338.899 466.756,345.232 464.5,351.5 Z"/></g>
<g><path style="opacity:1" fill="#cbec9e" d="M 423.5,140.5 C 418.993,160.896 416.326,181.563 415.5,202.5C 411.5,202.5 407.5,202.5 403.5,202.5C 405.873,180.302 412.54,159.635 423.5,140.5 Z"/></g>
<g><path style="opacity:1" fill="#fdfefe" d="M 386.5,305.5 C 335.289,286.26 282.289,277.593 227.5,279.5C 221.743,245.954 227.076,214.287 243.5,184.5C 298.446,182.183 351.113,170.35 401.5,149C 386.188,190.127 380.354,232.627 384,276.5C 384.458,286.21 385.292,295.876 386.5,305.5 Z"/></g>
<g><path style="opacity:1" fill="#78bc99" d="M 156.5,151.5 C 169.907,151.056 183.24,151.556 196.5,153C 197.701,153.903 198.535,155.069 199,156.5C 199.499,160.152 199.665,163.818 199.5,167.5C 183.5,167.5 167.5,167.5 151.5,167.5C 151.335,163.818 151.501,160.152 152,156.5C 153.025,154.313 154.525,152.646 156.5,151.5 Z"/></g>
<g><path style="opacity:1" fill="#3f8888" d="M 363.5,179.5 C 370.857,179.684 374.024,183.351 373,190.5C 372.215,192.286 371.049,193.786 369.5,195C 332.461,207.173 294.461,213.507 255.5,214C 251.788,211.487 250.622,207.987 252,203.5C 252.93,201.448 254.43,199.948 256.5,199C 293.252,197.623 328.918,191.123 363.5,179.5 Z"/></g>
<g><path style="opacity:1" fill="#a7daa7" d="M 112.5,183.5 C 150.173,183.167 187.839,183.5 225.5,184.5C 222.109,191.672 219.109,199.006 216.5,206.5C 176.167,207.833 135.833,207.833 95.5,206.5C 98,201.5 100.5,196.5 103,191.5C 105.735,188.231 108.901,185.564 112.5,183.5 Z"/></g>
<g><path style="opacity:1" fill="#78bc99" d="M 48.5,215.5 C 57.5062,215.334 66.5062,215.5 75.5,216C 67.5384,242.126 67.5384,268.293 75.5,294.5C 66.5185,295.665 57.5185,295.832 48.5,295C 45.0976,293.6 42.2643,291.433 40,288.5C 28.7011,266.506 28.7011,244.506 40,222.5C 42.4412,219.546 45.2745,217.213 48.5,215.5 Z"/></g>
<g><path style="opacity:1" fill="#a6daa7" d="M 400.5,218.5 C 424.93,217.925 437.93,229.925 439.5,254.5C 439.66,271.37 432.327,283.537 417.5,291C 412.264,292.339 406.93,292.839 401.5,292.5C 399.183,267.871 398.85,243.205 400.5,218.5 Z"/></g>
<g><path style="opacity:1" fill="#78bc99" d="M 89.5,223.5 C 130.501,223.333 171.501,223.5 212.5,224C 210.009,234.311 209.009,244.811 209.5,255.5C 168.167,255.5 126.833,255.5 85.5,255.5C 85.4111,244.623 86.7445,233.956 89.5,223.5 Z"/></g>
<g><path style="opacity:1" fill="#a7daa7" d="M 86.5,271.5 C 127.833,271.5 169.167,271.5 210.5,271.5C 210.518,276.923 211.185,282.256 212.5,287.5C 171.5,287.5 130.5,287.5 89.5,287.5C 88.3146,282.202 87.3146,276.869 86.5,271.5 Z"/></g>
<g><path style="opacity:1" fill="#ceef9d" d="M 227.5,279.5 C 282.289,277.593 335.289,286.26 386.5,305.5C 389.366,324.79 394.366,343.624 401.5,362C 351.092,340.735 298.425,328.901 243.5,326.5C 235.768,311.636 230.434,295.97 227.5,279.5 Z"/></g>
<g><path style="opacity:1" fill="#78bc99" d="M 95.5,303.5 C 135.835,303.333 176.168,303.5 216.5,304C 219.604,311.813 222.604,319.646 225.5,327.5C 187.832,327.667 150.165,327.5 112.5,327C 108.759,325.262 105.592,322.762 103,319.5C 100.215,314.265 97.7152,308.932 95.5,303.5 Z"/></g>
<g><path style="opacity:1" fill="#ceef9e" d="M 427.5,304.5 C 430.729,316.284 435.563,327.284 442,337.5C 447.36,345.709 454.86,350.376 464.5,351.5C 461.171,362.996 455.171,372.829 446.5,381C 441.8,384.212 437.133,384.212 432.5,381C 423.333,371.843 416.833,361.009 413,348.5C 408.765,335.755 405.598,322.755 403.5,309.5C 411.678,308.598 419.678,306.931 427.5,304.5 Z"/></g>
<g><path style="opacity:1" fill="#ceef9e" d="M 224.5,351.5 C 207.163,351.333 189.83,351.5 172.5,352C 160.254,356.079 152.254,364.245 148.5,376.5C 143.025,374.864 138.858,371.53 136,366.5C 132.994,358.981 130.494,351.314 128.5,343.5C 160.833,343.5 193.167,343.5 225.5,343.5C 225.806,346.385 225.473,349.052 224.5,351.5 Z"/></g>
<g><path style="opacity:1" fill="#fdfdfd" d="M 224.5,351.5 C 222.017,360.148 216.351,365.648 207.5,368C 192.028,370.827 176.694,374.161 161.5,378C 156.864,378.939 152.531,378.439 148.5,376.5C 152.254,364.245 160.254,356.079 172.5,352C 189.83,351.5 207.163,351.333 224.5,351.5 Z"/></g>
<g><path style="opacity:0.941" fill="#3b8686" d="M 66.5,359.5 C 73.9915,357.571 78.6581,360.238 80.5,367.5C 79.7865,369.811 78.7865,371.978 77.5,374C 63.8542,378.913 49.8542,381.913 35.5,383C 32.484,381.471 31.1506,378.971 31.5,375.5C 31.4035,373.074 32.0702,370.907 33.5,369C 44.5613,365.655 55.5613,362.489 66.5,359.5 Z"/></g>
<g><path style="opacity:0.938" fill="#3b8686" d="M 339.5,375.5 C 342.187,375.336 344.854,375.503 347.5,376C 358.833,381.667 370.167,387.333 381.5,393C 386.205,403.613 382.872,408.28 371.5,407C 360.167,401.333 348.833,395.667 337.5,390C 335.571,386.744 335.071,383.244 336,379.5C 336.69,377.65 337.856,376.316 339.5,375.5 Z"/></g>
<g><path style="opacity:0.95" fill="#3a8585" d="M 83.5,383.5 C 94.4852,382.457 97.9852,387.124 94,397.5C 80.5,408.333 67,419.167 53.5,430C 41.3333,433.833 37.1667,429.667 41,417.5C 55.3276,406.268 69.4943,394.934 83.5,383.5 Z"/></g>
<g><path style="opacity:1" fill="#cdef9e" d="M 213.5,392.5 C 200.416,398.662 194.583,408.995 196,423.5C 199.472,432.248 203.138,440.915 207,449.5C 218.021,463.447 231.855,467.114 248.5,460.5C 250.607,463.037 252.941,465.37 255.5,467.5C 244.881,471.429 234.214,475.262 223.5,479C 210.215,480.774 200.715,475.608 195,463.5C 185.481,439.801 175.981,416.135 166.5,392.5C 180.175,389.943 193.842,387.276 207.5,384.5C 210.916,385.958 212.916,388.625 213.5,392.5 Z"/></g>
<g><path style="opacity:1" fill="#fdfefd" d="M 213.5,392.5 C 220.702,409.595 228.202,426.595 236,443.5C 239.688,449.552 243.854,455.218 248.5,460.5C 231.855,467.114 218.021,463.447 207,449.5C 203.138,440.915 199.472,432.248 196,423.5C 194.583,408.995 200.416,398.662 213.5,392.5 Z"/></g>
<g><path style="opacity:0.939" fill="#3b8686" d="M 107.5,399.5 C 117.781,398.045 121.614,402.378 119,412.5C 116.465,423.643 113.465,434.643 110,445.5C 98.7438,450.206 94.0771,446.539 96,434.5C 98.5354,423.357 101.535,412.357 105,401.5C 105.995,400.934 106.828,400.267 107.5,399.5 Z"/></g>
<g><path style="opacity:0.944" fill="#3b8686" d="M 315.5,399.5 C 318.978,399.184 322.312,399.684 325.5,401C 336.333,411.833 347.167,422.667 358,433.5C 360.621,438.729 359.788,443.229 355.5,447C 352.036,447.817 348.702,447.483 345.5,446C 334.667,435.167 323.833,424.333 313,413.5C 310.418,408.12 311.251,403.453 315.5,399.5 Z"/></g>
<g><path style="opacity:0.938" fill="#3b8686" d="M 283.5,415.5 C 287.257,415.071 290.757,415.737 294,417.5C 300.31,429.954 306.477,442.454 312.5,455C 310.245,463.623 305.078,465.79 297,461.5C 291.333,450.167 285.667,438.833 280,427.5C 278.593,422.556 279.759,418.556 283.5,415.5 Z"/></g>
</svg>
