<?xml version="1.0" encoding="UTF-8"?>
<!DOCTYPE svg PUBLIC "-//W3C//DTD SVG 1.1//EN" "http://www.w3.org/Graphics/SVG/1.1/DTD/svg11.dtd">
<svg xmlns="http://www.w3.org/2000/svg" version="1.1" width="512px" height="512px" style="shape-rendering:geometricPrecision; text-rendering:geometricPrecision; image-rendering:optimizeQuality; fill-rule:evenodd; clip-rule:evenodd" xmlns:xlink="http://www.w3.org/1999/xlink">
<g><path style="opacity:0.994" fill="#3b8686" d="M 171.5,95.5 C 176.08,95.1134 180.414,95.9468 184.5,98C 234.437,121.644 284.27,145.477 334,169.5C 335.133,176.733 335.633,184.066 335.5,191.5C 335.633,198.934 335.133,206.267 334,213.5C 330.744,215.429 327.244,215.929 323.5,215C 316.801,212.234 310.301,209.067 304,205.5C 303.5,232.831 303.333,260.165 303.5,287.5C 328.836,287.333 354.169,287.5 379.5,288C 381.333,288.5 382.5,289.667 383,291.5C 383.5,300.827 383.666,310.161 383.5,319.5C 401.594,319.027 419.594,319.527 437.5,321C 457.04,342.871 476.207,365.038 495,387.5C 495.667,411.5 495.667,435.5 495,459.5C 494.5,461.333 493.333,462.5 491.5,463C 484.833,463.333 478.167,463.667 471.5,464C 461.398,492.049 442.064,501.383 413.5,492C 402.1,485.869 394.767,476.535 391.5,464C 356.833,463.333 322.167,463.333 287.5,464C 277.398,492.049 258.064,501.383 229.5,492C 218.1,485.869 210.767,476.535 207.5,464C 192.074,463.969 176.741,463.302 161.5,462C 160.874,461.25 160.374,460.416 160,459.5C 159.5,450.173 159.334,440.839 159.5,431.5C 148.833,431.5 138.167,431.5 127.5,431.5C 127.667,451.503 127.5,471.503 127,491.5C 126.626,492.416 126.126,493.25 125.5,494C 107.588,495.154 89.5878,495.654 71.5,495.5C 53.4122,495.654 35.4122,495.154 17.5,494C 16.8742,493.25 16.3742,492.416 16,491.5C 15.3333,456.833 15.3333,422.167 16,387.5C 16.5,385.667 17.6667,384.5 19.5,384C 26.1583,383.5 32.825,383.334 39.5,383.5C 39.6667,325.499 39.5,267.499 39,209.5C 33.0691,213.591 26.5691,215.424 19.5,215C 18.5838,214.626 17.7504,214.126 17,213.5C 15.3691,199.594 15.0358,185.594 16,171.5C 16.3742,170.584 16.8742,169.75 17.5,169C 69.0459,144.725 120.379,120.225 171.5,95.5 Z"/></g>
<g><path style="opacity:1" fill="#77bb99" d="M 165.5,116.5 C 166.805,118.397 167.471,120.731 167.5,123.5C 167.473,126.089 167.139,128.589 166.5,131C 121.712,151.894 77.0456,173.06 32.5,194.5C 31.1977,189.615 31.1977,184.782 32.5,180C 77.0651,159.102 121.398,137.935 165.5,116.5 Z"/></g>
<g><path style="opacity:1" fill="#77bb99" d="M 183.5,116.5 C 228.478,137.655 273.478,158.822 318.5,180C 319.802,184.782 319.802,189.615 318.5,194.5C 273.876,173.237 229.209,152.07 184.5,131C 183.531,126.263 183.197,121.43 183.5,116.5 Z"/></g>
<g><path style="opacity:0.974" fill="#3c8686" d="M 412.5,135.5 C 447.018,132.552 469.185,147.552 479,180.5C 481.49,200.874 477.49,219.874 467,237.5C 456.961,253.208 444.461,266.708 429.5,278C 425.5,280 421.5,280 417.5,278C 398.215,264.389 383.715,246.889 374,225.5C 364.672,203.434 365.338,181.768 376,160.5C 385.049,147.618 397.216,139.284 412.5,135.5 Z M 420.5,184.5 C 429.85,184.365 432.517,188.532 428.5,197C 419.956,200.322 416.123,197.489 417,188.5C 417.69,186.65 418.856,185.316 420.5,184.5 Z"/></g>
<g><path style="opacity:1" fill="#ceef9e" d="M 287.5,204.5 C 250.193,186.847 212.86,169.181 175.5,151.5C 144.288,166.606 112.954,181.44 81.5,196C 80.9781,196.561 80.6448,197.228 80.5,198C 100.227,244.048 134.894,271.048 184.5,279C 218.832,279.5 253.165,279.667 287.5,279.5C 287.5,282.167 287.5,284.833 287.5,287.5C 246.499,287.333 205.499,287.5 164.5,288C 162.333,288.833 160.833,290.333 160,292.5C 159.5,304.162 159.333,315.829 159.5,327.5C 145.163,327.333 130.829,327.5 116.5,328C 115.069,328.465 113.903,329.299 113,330.5C 111.527,348.073 111.027,365.739 111.5,383.5C 92.8333,383.5 74.1667,383.5 55.5,383.5C 55.1667,322.496 55.5,261.496 56.5,200.5C 96.1525,181.423 135.986,162.757 176,144.5C 212.742,162.12 249.575,179.62 286.5,197C 287.435,199.381 287.768,201.881 287.5,204.5 Z"/></g>
<g><path style="opacity:1" fill="#fcfdfc" d="M 455.5,222.5 C 421.558,229.734 400.724,216.4 393,182.5C 391.878,177.898 391.378,173.232 391.5,168.5C 397.145,159.824 405.145,154.324 415.5,152C 439.893,149.744 455.726,160.244 463,183.5C 464.529,197.309 462.029,210.309 455.5,222.5 Z M 420.5,184.5 C 418.856,185.316 417.69,186.65 417,188.5C 416.123,197.489 419.956,200.322 428.5,197C 432.517,188.532 429.85,184.365 420.5,184.5 Z"/></g>
<g><path style="opacity:1" fill="#fefefe" d="M 287.5,204.5 C 287.5,229.5 287.5,254.5 287.5,279.5C 253.165,279.667 218.832,279.5 184.5,279C 134.894,271.048 100.227,244.048 80.5,198C 80.6448,197.228 80.9781,196.561 81.5,196C 112.954,181.44 144.288,166.606 175.5,151.5C 212.86,169.181 250.193,186.847 287.5,204.5 Z"/></g>
<g><path style="opacity:0.986" fill="#3d8787" d="M 417.5,167.5 C 432.153,165.738 441.987,171.738 447,185.5C 448.802,200.407 442.635,210.24 428.5,215C 414.045,216.52 404.545,210.353 400,196.5C 398.669,182.493 404.502,172.826 417.5,167.5 Z M 420.5,184.5 C 418.856,185.316 417.69,186.65 417,188.5C 416.123,197.489 419.956,200.322 428.5,197C 432.517,188.532 429.85,184.365 420.5,184.5 Z"/></g>
<g><path style="opacity:1" fill="#cdef9e" d="M 391.5,168.5 C 391.378,173.232 391.878,177.898 393,182.5C 400.724,216.4 421.558,229.734 455.5,222.5C 447.999,237.512 437.666,250.346 424.5,261C 404.667,247.593 391.5,229.093 385,205.5C 383.131,196.814 383.131,188.147 385,179.5C 386.346,175.229 388.513,171.562 391.5,168.5 Z"/></g>
<g><path style="opacity:1" fill="#3b8686" d="M 140.5,175.5 C 163.502,175.333 186.502,175.5 209.5,176C 211.329,176.273 212.829,177.107 214,178.5C 215.646,202.079 215.979,225.745 215,249.5C 214.727,251.329 213.893,252.829 212.5,254C 188.563,255.637 164.563,255.97 140.5,255C 139.069,254.535 137.903,253.701 137,252.5C 135.363,228.563 135.03,204.563 136,180.5C 137.025,178.313 138.525,176.646 140.5,175.5 Z"/></g>
<g><path style="opacity:1" fill="#fefffe" d="M 152.5,191.5 C 157.5,191.5 162.5,191.5 167.5,191.5C 167.5,196.5 167.5,201.5 167.5,206.5C 162.167,201.833 157.167,196.833 152.5,191.5 Z"/></g>
<g><path style="opacity:1" fill="#fefffe" d="M 184.5,191.5 C 189.5,191.5 194.5,191.5 199.5,191.5C 199.5,196.5 199.5,201.5 199.5,206.5C 194.167,201.833 189.167,196.833 184.5,191.5 Z"/></g>
<g><path style="opacity:1" fill="#d1f0a3" d="M 152.5,191.5 C 157.167,196.833 162.167,201.833 167.5,206.5C 162.36,207.488 157.026,207.821 151.5,207.5C 151.179,201.974 151.512,196.64 152.5,191.5 Z"/></g>
<g><path style="opacity:1" fill="#d1f0a3" d="M 184.5,191.5 C 189.167,196.833 194.167,201.833 199.5,206.5C 194.36,207.488 189.026,207.821 183.5,207.5C 183.179,201.974 183.512,196.64 184.5,191.5 Z"/></g>
<g><path style="opacity:1" fill="#fefffe" d="M 152.5,223.5 C 157.5,223.5 162.5,223.5 167.5,223.5C 167.5,228.5 167.5,233.5 167.5,238.5C 162.167,233.833 157.167,228.833 152.5,223.5 Z"/></g>
<g><path style="opacity:1" fill="#fefffe" d="M 184.5,223.5 C 189.5,223.5 194.5,223.5 199.5,223.5C 199.5,228.5 199.5,233.5 199.5,238.5C 194.167,233.833 189.167,228.833 184.5,223.5 Z"/></g>
<g><path style="opacity:1" fill="#d1f0a3" d="M 152.5,223.5 C 157.167,228.833 162.167,233.833 167.5,238.5C 162.36,239.488 157.026,239.821 151.5,239.5C 151.179,233.974 151.512,228.64 152.5,223.5 Z"/></g>
<g><path style="opacity:1" fill="#d1f0a3" d="M 184.5,223.5 C 189.167,228.833 194.167,233.833 199.5,238.5C 194.36,239.488 189.026,239.821 183.5,239.5C 183.179,233.974 183.512,228.64 184.5,223.5 Z"/></g>
<g><path style="opacity:1" fill="#a7daa7" d="M 175.5,303.5 C 239.5,303.5 303.5,303.5 367.5,303.5C 367.5,351.5 367.5,399.5 367.5,447.5C 340.492,447.833 313.492,447.5 286.5,446.5C 280.392,426.27 266.726,415.936 245.5,415.5C 226.205,417.458 213.871,427.791 208.5,446.5C 197.52,447.499 186.52,447.832 175.5,447.5C 175.5,399.5 175.5,351.5 175.5,303.5 Z"/></g>
<g><path style="opacity:1" fill="#3b8686" d="M 204.5,327.5 C 238.168,327.333 271.835,327.5 305.5,328C 311.448,330.433 312.948,334.6 310,340.5C 308.829,341.893 307.329,342.727 305.5,343C 271.833,343.667 238.167,343.667 204.5,343C 199.465,339.987 198.298,335.82 201,330.5C 202.145,329.364 203.312,328.364 204.5,327.5 Z"/></g>
<g><path style="opacity:1" fill="#a7daa7" d="M 383.5,335.5 C 388.833,335.5 394.167,335.5 399.5,335.5C 399.333,354.836 399.5,374.17 400,393.5C 400.273,395.329 401.107,396.829 402.5,398C 428.077,399.481 453.744,399.981 479.5,399.5C 479.5,415.5 479.5,431.5 479.5,447.5C 476.428,447.817 473.428,447.484 470.5,446.5C 464.392,426.27 450.726,415.936 429.5,415.5C 410.205,417.458 397.871,427.791 392.5,446.5C 389.572,447.484 386.572,447.817 383.5,447.5C 383.5,410.167 383.5,372.833 383.5,335.5 Z"/></g>
<g><path style="opacity:1" fill="#fcfdfc" d="M 467.5,383.5 C 456.06,378.066 444.393,372.899 432.5,368C 426.934,359.017 421.267,350.184 415.5,341.5C 415.5,339.5 415.5,337.5 415.5,335.5C 419.846,335.334 424.179,335.501 428.5,336C 442.167,351.667 455.833,367.333 469.5,383C 468.906,383.464 468.239,383.631 467.5,383.5 Z"/></g>
<g><path style="opacity:1" fill="#cff09f" d="M 415.5,341.5 C 421.267,350.184 426.934,359.017 432.5,368C 444.393,372.899 456.06,378.066 467.5,383.5C 450.167,383.5 432.833,383.5 415.5,383.5C 415.5,369.5 415.5,355.5 415.5,341.5 Z"/></g>
<g><path style="opacity:1" fill="#79bd99" d="M 127.5,343.5 C 138.167,343.5 148.833,343.5 159.5,343.5C 159.5,367.5 159.5,391.5 159.5,415.5C 148.833,415.5 138.167,415.5 127.5,415.5C 127.5,391.5 127.5,367.5 127.5,343.5 Z"/></g>
<g><path style="opacity:1" fill="#3b8686" d="M 236.5,359.5 C 267.502,359.333 298.502,359.5 329.5,360C 335.448,362.433 336.948,366.6 334,372.5C 332.829,373.893 331.329,374.727 329.5,375C 298.5,375.667 267.5,375.667 236.5,375C 231.465,371.987 230.298,367.82 233,362.5C 234.145,361.364 235.312,360.364 236.5,359.5 Z"/></g>
<g><path style="opacity:1" fill="#3b8686" d="M 284.5,391.5 C 304.836,391.333 325.169,391.5 345.5,392C 351.448,394.433 352.948,398.6 350,404.5C 348.829,405.893 347.329,406.727 345.5,407C 325.167,407.667 304.833,407.667 284.5,407C 279.465,403.987 278.298,399.82 281,394.5C 282.145,393.364 283.312,392.364 284.5,391.5 Z"/></g>
<g><path style="opacity:1" fill="#a7daa7" d="M 31.5,399.5 C 36.8333,399.5 42.1667,399.5 47.5,399.5C 47.0796,409.247 47.5796,418.914 49,428.5C 49.9025,429.701 51.0692,430.535 52.5,431C 64.8333,431.667 77.1667,431.667 89.5,431C 91.3289,430.727 92.8289,429.893 94,428.5C 95.4204,418.914 95.9204,409.247 95.5,399.5C 100.833,399.5 106.167,399.5 111.5,399.5C 111.5,426.167 111.5,452.833 111.5,479.5C 84.8333,479.5 58.1667,479.5 31.5,479.5C 31.5,452.833 31.5,426.167 31.5,399.5 Z"/></g>
<g><path style="opacity:1" fill="#cef09d" d="M 63.5,399.5 C 68.8333,399.5 74.1667,399.5 79.5,399.5C 79.5,404.833 79.5,410.167 79.5,415.5C 74.1667,415.5 68.8333,415.5 63.5,415.5C 63.5,410.167 63.5,404.833 63.5,399.5 Z"/></g>
<g><path style="opacity:1" fill="#78bc99" d="M 241.5,431.5 C 255.817,430.238 265.65,436.238 271,449.5C 272.812,464.382 266.646,474.215 252.5,479C 238.045,480.52 228.545,474.353 224,460.5C 222.669,446.493 228.502,436.826 241.5,431.5 Z"/></g>
<g><path style="opacity:1" fill="#78bc99" d="M 425.5,431.5 C 439.817,430.238 449.65,436.238 455,449.5C 456.812,464.382 450.646,474.215 436.5,479C 422.045,480.52 412.545,474.353 408,460.5C 406.669,446.493 412.502,436.826 425.5,431.5 Z"/></g>
<g><path style="opacity:1" fill="#3d8886" d="M 244.5,447.5 C 255.167,448.003 257.833,452.836 252.5,462C 243.42,465.215 239.253,462.048 240,452.5C 241.025,450.313 242.525,448.646 244.5,447.5 Z"/></g>
<g><path style="opacity:1" fill="#3d8886" d="M 428.5,447.5 C 439.167,448.003 441.833,452.836 436.5,462C 427.42,465.215 423.253,462.048 424,452.5C 425.025,450.313 426.525,448.646 428.5,447.5 Z"/></g>
</svg>
