<?xml version="1.0" encoding="UTF-8"?>
<!DOCTYPE svg PUBLIC "-//W3C//DTD SVG 1.1//EN" "http://www.w3.org/Graphics/SVG/1.1/DTD/svg11.dtd">
<svg xmlns="http://www.w3.org/2000/svg" version="1.1" width="512px" height="512px" style="shape-rendering:geometricPrecision; text-rendering:geometricPrecision; image-rendering:optimizeQuality; fill-rule:evenodd; clip-rule:evenodd" xmlns:xlink="http://www.w3.org/1999/xlink">
<g><path style="opacity:0.992" fill="#3b8686" d="M 479.5,455.5 C 479.5,448.5 479.5,441.5 479.5,434.5C 479.5,430.833 479.5,427.167 479.5,423.5C 474.167,423.5 468.833,423.5 463.5,423.5C 463.5,434.167 463.5,444.833 463.5,455.5C 463.842,461.158 461.176,463.824 455.5,463.5C 449.824,463.824 447.158,461.158 447.5,455.5C 447.333,433.164 447.5,410.831 448,388.5C 451.892,382.741 456.559,382.074 462,386.5C 463.425,393.385 463.925,400.385 463.5,407.5C 468.833,407.5 474.167,407.5 479.5,407.5C 481.829,392.643 478.996,378.976 471,366.5C 462.643,357.072 452.143,352.072 439.5,351.5C 439.854,355.637 439.354,359.637 438,363.5C 433.333,368.167 428.667,372.833 424,377.5C 423.667,390.833 423.333,404.167 423,417.5C 420.567,423.448 416.4,424.948 410.5,422C 409.107,420.829 408.273,419.329 408,417.5C 407.667,404.5 407.333,391.5 407,378.5C 402.7,373.199 398.034,368.199 393,363.5C 391.646,359.637 391.146,355.637 391.5,351.5C 370.756,352.738 357.59,363.405 352,383.5C 351.5,391.493 351.334,399.493 351.5,407.5C 356.833,407.5 362.167,407.5 367.5,407.5C 367.075,400.385 367.575,393.385 369,386.5C 374.441,382.074 379.108,382.741 383,388.5C 383.5,410.831 383.667,433.164 383.5,455.5C 383.842,461.158 381.176,463.824 375.5,463.5C 369.824,463.824 367.158,461.158 367.5,455.5C 367.5,444.833 367.5,434.167 367.5,423.5C 362.167,423.5 356.833,423.5 351.5,423.5C 351.5,427.167 351.5,430.833 351.5,434.5C 351.5,441.5 351.5,448.5 351.5,455.5C 351.667,467.505 351.5,479.505 351,491.5C 350.5,493.333 349.333,494.5 347.5,495C 340.252,497.226 336.252,494.726 335.5,487.5C 335.667,452.832 335.5,418.165 335,383.5C 332.284,372.797 326.451,364.297 317.5,358C 315.975,356.991 314.308,356.491 312.5,356.5C 309.893,370.054 306.393,383.387 302,396.5C 300.033,398.27 297.7,399.27 295,399.5C 284.33,394.916 273.83,389.916 263.5,384.5C 252.954,390.191 242.12,395.191 231,399.5C 226.358,398.858 223.692,396.192 223,391.5C 219.845,379.888 217.012,368.221 214.5,356.5C 209.329,358.346 204.829,361.346 201,365.5C 196.946,370.942 193.946,376.942 192,383.5C 191.5,418.165 191.333,452.832 191.5,487.5C 190.748,494.726 186.748,497.226 179.5,495C 178.584,494.626 177.75,494.126 177,493.5C 175.539,480.933 175.039,468.266 175.5,455.5C 175.333,431.164 175.5,406.831 176,382.5C 176.662,380.187 177.162,377.854 177.5,375.5C 162.621,374.959 153.955,367.292 151.5,352.5C 134.912,356.587 124.412,366.92 120,383.5C 119.5,407.498 119.333,431.498 119.5,455.5C 119.854,458.961 118.521,461.461 115.5,463C 112.036,463.817 108.702,463.483 105.5,462C 104.874,461.25 104.374,460.416 104,459.5C 103.5,452.842 103.334,446.175 103.5,439.5C 103.333,421.497 103.5,403.497 104,385.5C 106.363,366.827 115.529,352.66 131.5,343C 135.864,340.818 140.198,338.651 144.5,336.5C 144.113,335.28 143.28,334.613 142,334.5C 137.876,335.572 133.71,335.738 129.5,335C 125.601,333.816 121.934,332.483 118.5,331C 112.675,342.986 106.342,354.653 99.5,366C 95.7559,366.929 92.2559,366.429 89,364.5C 83.0611,352.956 77.3944,341.289 72,329.5C 71.5017,326.183 71.335,322.85 71.5,319.5C 50.7563,320.738 37.5897,331.405 32,351.5C 31.5003,359.493 31.3336,367.493 31.5,375.5C 36.8333,375.5 42.1667,375.5 47.5,375.5C 47.0753,368.385 47.5753,361.385 49,354.5C 52.4186,351.152 56.252,350.652 60.5,353C 61.7014,353.903 62.5348,355.069 63,356.5C 63.5,384.165 63.6666,411.831 63.5,439.5C 63.8422,445.158 61.1756,447.824 55.5,447.5C 49.8244,447.824 47.1578,445.158 47.5,439.5C 47.5,423.5 47.5,407.5 47.5,391.5C 42.1667,391.5 36.8333,391.5 31.5,391.5C 31.5,392.5 31.5,393.5 31.5,394.5C 31.5,408.833 31.5,423.167 31.5,437.5C 31.5,438.167 31.5,438.833 31.5,439.5C 30.7483,446.726 26.7483,449.226 19.5,447C 17.6667,446.5 16.5,445.333 16,443.5C 15.3333,411.833 15.3333,380.167 16,348.5C 18.936,337.127 24.1027,326.96 31.5,318C 28.0225,311.878 25.5225,305.378 24,298.5C 23.3333,285.5 23.3333,272.5 24,259.5C 31.1667,227 51,207.167 83.5,200C 118.797,196.312 144.797,209.979 161.5,241C 169.339,239.683 177.339,239.183 185.5,239.5C 193.107,213.058 210.107,195.558 236.5,187C 271.947,177.318 302.447,185.484 328,211.5C 342.514,229.731 347.014,250.231 341.5,273C 342.076,274.714 343.243,275.881 345,276.5C 360.259,235.939 389.426,218.773 432.5,225C 462.403,233.569 480.569,253.069 487,283.5C 487.333,309.833 487.667,336.167 488,362.5C 491.317,368.117 493.65,374.117 495,380.5C 495.667,406.833 495.667,433.167 495,459.5C 494.5,461.333 493.333,462.5 491.5,463C 484.252,465.226 480.252,462.726 479.5,455.5 Z M 213.5,323.5 C 216.225,327.729 219.559,331.562 223.5,335C 219.5,336.167 215.5,337.333 211.5,338.5C 206.837,338.395 206.004,337.061 209,334.5C 211.072,331.029 212.572,327.362 213.5,323.5 Z M 307.5,330.5 C 318.855,336.272 330.521,336.939 342.5,332.5C 343.665,342.149 343.832,351.816 343,361.5C 333.857,346.833 320.69,338 303.5,335C 305.041,333.629 306.375,332.129 307.5,330.5 Z"/></g>
<g><path style="opacity:1" fill="#a6d9a7" d="M 252.5,199.5 C 278.356,196.946 299.856,205.28 317,224.5C 329.832,242.819 330.832,261.819 320,281.5C 319.667,273.833 319.333,266.167 319,258.5C 317.091,255.586 314.425,253.919 311,253.5C 285.732,259.632 264.899,252.799 248.5,233C 245.97,231.578 243.303,231.245 240.5,232C 229.631,243.2 219.131,254.7 209,266.5C 207.776,271.386 207.109,276.386 207,281.5C 193.127,253.158 198.96,229.658 224.5,211C 233.334,205.674 242.668,201.84 252.5,199.5 Z"/></g>
<g><path style="opacity:1" fill="#3c8786" d="M 268.5,214.5 C 274.955,215.22 280.955,217.386 286.5,221C 290.723,222.472 295.057,223.472 299.5,224C 305.596,231.01 304.263,236.177 295.5,239.5C 283.983,238.166 273.817,233.833 265,226.5C 262.458,221.361 263.624,217.361 268.5,214.5 Z"/></g>
<g><path style="opacity:1" fill="#78bc99" d="M 87.5,215.5 C 115.403,213.78 135.403,225.447 147.5,250.5C 140.932,257.971 136.765,266.638 135,276.5C 134.167,274.333 132.667,272.833 130.5,272C 121.706,271.187 114.54,267.353 109,260.5C 105.767,254.12 102.934,247.62 100.5,241C 78.511,235.575 63.6777,243.409 56,264.5C 53.3861,278.565 55.8861,291.565 63.5,303.5C 57.563,304.734 51.8963,306.734 46.5,309.5C 43.466,304.905 41.2993,299.905 40,294.5C 34.6117,269.198 40.7783,247.364 58.5,229C 67.1082,222.082 76.7749,217.582 87.5,215.5 Z"/></g>
<g><path style="opacity:1" fill="#78bc99" d="M 407.5,239.5 C 441.386,238.244 462.552,253.91 471,286.5C 471.667,306.167 471.667,325.833 471,345.5C 463.82,340.715 455.987,337.382 447.5,335.5C 451.061,330.325 453.561,324.658 455,318.5C 455.958,306.404 455.625,294.404 454,282.5C 452.829,281.107 451.329,280.273 449.5,280C 437.518,279.509 427.851,274.509 420.5,265C 417.134,263.121 413.8,263.121 410.5,265C 402.925,274.788 392.925,279.788 380.5,280C 379.069,280.465 377.903,281.299 377,282.5C 375.375,294.404 375.042,306.404 376,318.5C 377.439,324.658 379.939,330.325 383.5,335.5C 374.899,337.051 367.065,340.385 360,345.5C 359.333,325.833 359.333,306.167 360,286.5C 365.794,260.539 381.627,244.872 407.5,239.5 Z"/></g>
<g><path style="opacity:1" fill="#ceef9e" d="M 303.5,287.5 C 298.167,287.5 292.833,287.5 287.5,287.5C 286.608,281.048 282.941,278.548 276.5,280C 274.676,280.66 273.343,281.827 272.5,283.5C 260.688,280.197 251.188,273.53 244,263.5C 240,268.167 236,272.833 232,277.5C 232.386,303.565 245.219,320.065 270.5,327C 276.528,327.641 282.528,327.474 288.5,326.5C 266.327,341.011 246.827,338.011 230,317.5C 227.781,313.729 226.115,309.729 225,305.5C 223.459,294.884 223.125,284.217 224,273.5C 230.37,266.132 237.036,259.132 244,252.5C 261.091,267.16 280.925,273.493 303.5,271.5C 303.5,276.833 303.5,282.167 303.5,287.5 Z"/></g>
<g><path style="opacity:1" fill="#fcfdfd" d="M 101.5,302.5 C 83.0079,293.171 76.0079,278.171 80.5,257.5C 83.1913,255.404 86.1913,255.07 89.5,256.5C 94.2355,270.735 103.569,280.568 117.5,286C 113.885,289.619 111.051,293.786 109,298.5C 106.843,300.495 104.343,301.828 101.5,302.5 Z"/></g>
<g><path style="opacity:1" fill="#77bc99" d="M 169.5,255.5 C 174.214,255.353 178.881,255.686 183.5,256.5C 183.84,261.223 184.507,265.89 185.5,270.5C 180.4,271.218 176.4,273.718 173.5,278C 166.917,282.792 159.583,285.626 151.5,286.5C 149.545,271.395 155.545,261.062 169.5,255.5 Z"/></g>
<g><path style="opacity:1" fill="#cced9e" d="M 80.5,257.5 C 76.0079,278.171 83.0079,293.171 101.5,302.5C 87.0171,305.332 77.1838,299.665 72,285.5C 71.3333,279.167 71.3333,272.833 72,266.5C 73.6814,262.321 76.5147,259.321 80.5,257.5 Z"/></g>
<g><path style="opacity:1" fill="#fefefe" d="M 272.5,283.5 C 270.681,293.511 274.681,297.011 284.5,294C 286.451,292.266 287.451,290.099 287.5,287.5C 292.833,287.5 298.167,287.5 303.5,287.5C 304.957,303.148 299.957,316.148 288.5,326.5C 282.528,327.474 276.528,327.641 270.5,327C 245.219,320.065 232.386,303.565 232,277.5C 236,272.833 240,268.167 244,263.5C 251.188,273.53 260.688,280.197 272.5,283.5 Z"/></g>
<g><path style="opacity:1" fill="#438a8a" d="M 244.5,279.5 C 252.658,278.823 256.158,282.49 255,290.5C 252.774,294.861 249.274,296.361 244.5,295C 240.139,292.774 238.639,289.274 240,284.5C 241.025,282.313 242.525,280.646 244.5,279.5 Z"/></g>
<g><path style="opacity:1" fill="#438a89" d="M 287.5,287.5 C 287.451,290.099 286.451,292.266 284.5,294C 274.681,297.011 270.681,293.511 272.5,283.5C 273.343,281.827 274.676,280.66 276.5,280C 282.941,278.548 286.608,281.048 287.5,287.5 Z"/></g>
<g><path style="opacity:1" fill="#cdee9f" d="M 439.5,302.5 C 429.916,300.041 421.916,295.041 415.5,287.5C 411.102,292.229 406.102,296.229 400.5,299.5C 399.071,316.321 406.071,327.987 421.5,334.5C 406.709,336.847 396.876,330.847 392,316.5C 391.5,309.174 391.334,301.841 391.5,294.5C 400.499,293 408.499,289.334 415.5,283.5C 422.501,289.334 430.501,293 439.5,294.5C 439.5,297.167 439.5,299.833 439.5,302.5 Z"/></g>
<g><path style="opacity:1" fill="#fefefd" d="M 439.5,302.5 C 442.245,318.356 436.245,329.022 421.5,334.5C 406.071,327.987 399.071,316.321 400.5,299.5C 406.102,296.229 411.102,292.229 415.5,287.5C 421.916,295.041 429.916,300.041 439.5,302.5 Z"/></g>
<g><path style="opacity:1" fill="#fdfefd" d="M 178.5,334.5 C 163.178,331.845 154.178,322.845 151.5,307.5C 151.5,305.833 151.5,304.167 151.5,302.5C 163.528,301.269 174.528,297.269 184.5,290.5C 189.547,293.109 194.38,296.109 199,299.5C 202.294,313.635 198.127,324.801 186.5,333C 183.937,334.079 181.271,334.579 178.5,334.5 Z"/></g>
<g><path style="opacity:1" fill="#a5d9a7" d="M 333.5,289.5 C 342.903,293.659 345.736,300.659 342,310.5C 337.574,317.908 331.074,320.742 322.5,319C 320.667,317.833 318.833,316.667 317,315.5C 316.502,313.473 316.669,311.473 317.5,309.5C 323.792,303.572 329.125,296.905 333.5,289.5 Z"/></g>
<g><path style="opacity:1" fill="#77bb99" d="M 131.5,295.5 C 132.833,295.5 134.167,295.5 135.5,295.5C 135.302,303.534 135.635,311.534 136.5,319.5C 126.931,318.427 122.764,313.094 124,303.5C 126.028,300.308 128.528,297.641 131.5,295.5 Z"/></g>
<g><path style="opacity:1" fill="#caeba2" d="M 151.5,307.5 C 154.178,322.845 163.178,331.845 178.5,334.5C 167.755,336.351 159.588,332.351 154,322.5C 151.967,317.705 151.134,312.705 151.5,307.5 Z"/></g>
<g><path style="opacity:1" fill="#78bc99" d="M 103.5,439.5 C 90.1667,439.5 76.8333,439.5 63.5,439.5C 63.6666,411.831 63.5,384.165 63,356.5C 62.5348,355.069 61.7014,353.903 60.5,353C 56.252,350.652 52.4186,351.152 49,354.5C 47.5753,361.385 47.0753,368.385 47.5,375.5C 42.1667,375.5 36.8333,375.5 31.5,375.5C 31.3336,367.493 31.5003,359.493 32,351.5C 37.5897,331.405 50.7563,320.738 71.5,319.5C 71.335,322.85 71.5017,326.183 72,329.5C 77.3944,341.289 83.0611,352.956 89,364.5C 92.2559,366.429 95.7559,366.929 99.5,366C 106.342,354.653 112.675,342.986 118.5,331C 121.934,332.483 125.601,333.816 129.5,335C 133.71,335.738 137.876,335.572 142,334.5C 143.28,334.613 144.113,335.28 144.5,336.5C 140.198,338.651 135.864,340.818 131.5,343C 115.529,352.66 106.363,366.827 104,385.5C 103.5,403.497 103.333,421.497 103.5,439.5 Z"/></g>
<g><path style="opacity:1" fill="#caec9d" d="M 99.5,319.5 C 100.262,321.262 101.596,322.262 103.5,322.5C 103.657,323.873 103.49,325.207 103,326.5C 100.289,331.047 97.7893,335.713 95.5,340.5C 91.73,334.962 89.0633,328.962 87.5,322.5C 87.8333,321.167 88.1667,319.833 88.5,318.5C 92.0938,319.426 95.7604,319.759 99.5,319.5 Z"/></g>
<g><path style="opacity:1" fill="#edf4f1" d="M 103.5,322.5 C 101.596,322.262 100.262,321.262 99.5,319.5C 100.568,318.566 101.901,318.232 103.5,318.5C 103.5,319.833 103.5,321.167 103.5,322.5 Z"/></g>
<g><path style="opacity:1" fill="#c7ea9f" d="M 171.5,351.5 C 173.946,354.231 176.946,356.231 180.5,357.5C 173.94,361.225 169.607,359.391 167.5,352C 167.833,351.5 168.167,351 168.5,350.5C 169.417,351.127 170.417,351.461 171.5,351.5 Z"/></g>
<g><path style="opacity:1" fill="#f5f9f7" d="M 180.5,357.5 C 176.946,356.231 173.946,354.231 171.5,351.5C 175.548,351.605 179.548,351.272 183.5,350.5C 183.448,353.346 182.448,355.68 180.5,357.5 Z"/></g>
<g><path style="opacity:1" fill="#a4d8a6" d="M 229.5,351.5 C 232.325,351.081 234.491,352.081 236,354.5C 240.289,360.458 244.956,366.124 250,371.5C 250.688,372.332 250.521,372.998 249.5,373.5C 245.5,375.5 241.5,377.5 237.5,379.5C 234.213,370.354 231.546,361.02 229.5,351.5 Z"/></g>
<g><path style="opacity:1" fill="#c8eb9d" d="M 271.5,353.5 C 270.761,353.369 270.094,353.536 269.5,354C 268.262,354.69 268.262,355.19 269.5,355.5C 267.735,358.029 265.735,360.362 263.5,362.5C 260.009,358.84 256.676,355.006 253.5,351C 259.455,351.823 265.455,351.656 271.5,350.5C 272.167,350.667 272.833,350.833 273.5,351C 272.619,351.708 271.953,352.542 271.5,353.5 Z"/></g>
<g><path style="opacity:1" fill="#a4d8a6" d="M 293.5,351.5 C 294.833,351.5 296.167,351.5 297.5,351.5C 295.454,361.02 292.787,370.354 289.5,379.5C 285.007,377.421 280.674,375.088 276.5,372.5C 282.415,365.653 288.081,358.653 293.5,351.5 Z"/></g>
<g><path style="opacity:1" fill="#a7daa7" d="M 447.5,455.5 C 426.167,455.5 404.833,455.5 383.5,455.5C 383.667,433.164 383.5,410.831 383,388.5C 379.108,382.741 374.441,382.074 369,386.5C 367.575,393.385 367.075,400.385 367.5,407.5C 362.167,407.5 356.833,407.5 351.5,407.5C 351.334,399.493 351.5,391.493 352,383.5C 357.59,363.405 370.756,352.738 391.5,351.5C 391.146,355.637 391.646,359.637 393,363.5C 398.034,368.199 402.7,373.199 407,378.5C 407.333,391.5 407.667,404.5 408,417.5C 408.273,419.329 409.107,420.829 410.5,422C 416.4,424.948 420.567,423.448 423,417.5C 423.333,404.167 423.667,390.833 424,377.5C 428.667,372.833 433.333,368.167 438,363.5C 439.354,359.637 439.854,355.637 439.5,351.5C 452.143,352.072 462.643,357.072 471,366.5C 478.996,378.976 481.829,392.643 479.5,407.5C 474.167,407.5 468.833,407.5 463.5,407.5C 463.925,400.385 463.425,393.385 462,386.5C 456.559,382.074 451.892,382.741 448,388.5C 447.5,410.831 447.333,433.164 447.5,455.5 Z"/></g>
<g><path style="opacity:1" fill="#fcfefa" d="M 419.5,351.5 C 420.833,351.5 422.167,351.5 423.5,351.5C 423.5,352.5 423.5,353.5 423.5,354.5C 421.596,354.262 420.262,353.262 419.5,351.5 Z"/></g>
<g><path style="opacity:1" fill="#caec9e" d="M 419.5,351.5 C 420.262,353.262 421.596,354.262 423.5,354.5C 421.592,358.08 418.926,361.08 415.5,363.5C 410.714,360.748 408.047,356.748 407.5,351.5C 411.5,351.5 415.5,351.5 419.5,351.5 Z"/></g>
<g><path style="opacity:1" fill="#a7daa7" d="M 175.5,455.5 C 167.5,455.5 159.5,455.5 151.5,455.5C 151.667,433.164 151.5,410.831 151,388.5C 147.987,383.465 143.82,382.298 138.5,385C 137.299,385.903 136.465,387.069 136,388.5C 135.5,410.831 135.333,433.164 135.5,455.5C 130.167,455.5 124.833,455.5 119.5,455.5C 119.333,431.498 119.5,407.498 120,383.5C 124.412,366.92 134.912,356.587 151.5,352.5C 153.955,367.292 162.621,374.959 177.5,375.5C 177.162,377.854 176.662,380.187 176,382.5C 175.5,406.831 175.333,431.164 175.5,455.5 Z"/></g>
<g><path style="opacity:1" fill="#cbdfda" d="M 271.5,353.5 C 271.167,354.5 270.5,355.167 269.5,355.5C 268.262,355.19 268.262,354.69 269.5,354C 270.094,353.536 270.761,353.369 271.5,353.5 Z"/></g>
<g><path style="opacity:1" fill="#78bc99" d="M 335.5,487.5 C 330.167,487.5 324.833,487.5 319.5,487.5C 319.667,465.164 319.5,442.831 319,420.5C 315.911,415.695 311.744,414.528 306.5,417C 305.299,417.903 304.465,419.069 304,420.5C 303.5,442.831 303.333,465.164 303.5,487.5C 276.833,487.5 250.167,487.5 223.5,487.5C 223.667,465.164 223.5,442.831 223,420.5C 219.911,415.695 215.744,414.528 210.5,417C 209.299,417.903 208.465,419.069 208,420.5C 207.5,442.831 207.333,465.164 207.5,487.5C 202.167,487.5 196.833,487.5 191.5,487.5C 191.333,452.832 191.5,418.165 192,383.5C 193.946,376.942 196.946,370.942 201,365.5C 204.829,361.346 209.329,358.346 214.5,356.5C 217.012,368.221 219.845,379.888 223,391.5C 223.692,396.192 226.358,398.858 231,399.5C 242.12,395.191 252.954,390.191 263.5,384.5C 273.83,389.916 284.33,394.916 295,399.5C 297.7,399.27 300.033,398.27 302,396.5C 306.393,383.387 309.893,370.054 312.5,356.5C 314.308,356.491 315.975,356.991 317.5,358C 326.451,364.297 332.284,372.797 335,383.5C 335.5,418.165 335.667,452.832 335.5,487.5 Z"/></g>
<g><path style="opacity:0.993" fill="#3b8686" d="M 151.5,455.5 C 151.842,461.158 149.176,463.824 143.5,463.5C 137.824,463.824 135.158,461.158 135.5,455.5C 135.333,433.164 135.5,410.831 136,388.5C 136.465,387.069 137.299,385.903 138.5,385C 143.82,382.298 147.987,383.465 151,388.5C 151.5,410.831 151.667,433.164 151.5,455.5 Z"/></g>
<g><path style="opacity:1" fill="#cff09e" d="M 47.5,439.5 C 42.1667,439.5 36.8333,439.5 31.5,439.5C 31.5,438.833 31.5,438.167 31.5,437.5C 38.9044,432.063 41.5711,424.73 39.5,415.5C 39.3333,411.167 39.1667,406.833 39,402.5C 37.6533,398.656 35.1533,395.989 31.5,394.5C 31.5,393.5 31.5,392.5 31.5,391.5C 36.8333,391.5 42.1667,391.5 47.5,391.5C 47.5,407.5 47.5,423.5 47.5,439.5 Z"/></g>
<g><path style="opacity:1" fill="#fdfefc" d="M 31.5,394.5 C 35.1533,395.989 37.6533,398.656 39,402.5C 39.1667,406.833 39.3333,411.167 39.5,415.5C 41.5711,424.73 38.9044,432.063 31.5,437.5C 31.5,423.167 31.5,408.833 31.5,394.5 Z"/></g>
<g><path style="opacity:1" fill="#3d8886" d="M 260.5,407.5 C 271.167,408.003 273.833,412.836 268.5,422C 259.42,425.215 255.253,422.048 256,412.5C 257.025,410.313 258.525,408.646 260.5,407.5 Z"/></g>
<g><path style="opacity:0.993" fill="#3b8686" d="M 223.5,487.5 C 223.842,493.158 221.176,495.824 215.5,495.5C 209.824,495.824 207.158,493.158 207.5,487.5C 207.333,465.164 207.5,442.831 208,420.5C 208.465,419.069 209.299,417.903 210.5,417C 215.744,414.528 219.911,415.695 223,420.5C 223.5,442.831 223.667,465.164 223.5,487.5 Z"/></g>
<g><path style="opacity:0.993" fill="#3b8686" d="M 319.5,487.5 C 319.842,493.158 317.176,495.824 311.5,495.5C 305.824,495.824 303.158,493.158 303.5,487.5C 303.333,465.164 303.5,442.831 304,420.5C 304.465,419.069 305.299,417.903 306.5,417C 311.744,414.528 315.911,415.695 319,420.5C 319.5,442.831 319.667,465.164 319.5,487.5 Z"/></g>
<g><path style="opacity:1" fill="#cff09e" d="M 367.5,455.5 C 364.833,455.5 362.167,455.5 359.5,455.5C 360.111,449.566 359.278,443.9 357,438.5C 355.549,436.536 353.716,435.203 351.5,434.5C 351.5,430.833 351.5,427.167 351.5,423.5C 356.833,423.5 362.167,423.5 367.5,423.5C 367.5,434.167 367.5,444.833 367.5,455.5 Z"/></g>
<g><path style="opacity:1" fill="#cff09e" d="M 479.5,434.5 C 475.847,435.989 473.347,438.656 472,442.5C 471.501,446.821 471.334,451.154 471.5,455.5C 468.833,455.5 466.167,455.5 463.5,455.5C 463.5,444.833 463.5,434.167 463.5,423.5C 468.833,423.5 474.167,423.5 479.5,423.5C 479.5,427.167 479.5,430.833 479.5,434.5 Z"/></g>
<g><path style="opacity:1" fill="#fefefd" d="M 351.5,434.5 C 353.716,435.203 355.549,436.536 357,438.5C 359.278,443.9 360.111,449.566 359.5,455.5C 356.833,455.5 354.167,455.5 351.5,455.5C 351.5,448.5 351.5,441.5 351.5,434.5 Z"/></g>
<g><path style="opacity:1" fill="#fefefd" d="M 479.5,434.5 C 479.5,441.5 479.5,448.5 479.5,455.5C 476.833,455.5 474.167,455.5 471.5,455.5C 471.334,451.154 471.501,446.821 472,442.5C 473.347,438.656 475.847,435.989 479.5,434.5 Z"/></g>
<g><path style="opacity:1" fill="#3d8886" d="M 260.5,439.5 C 271.167,440.003 273.833,444.836 268.5,454C 259.42,457.215 255.253,454.048 256,444.5C 257.025,442.313 258.525,440.646 260.5,439.5 Z"/></g>
</svg>
