<?xml version="1.0" encoding="UTF-8"?>
<!DOCTYPE svg PUBLIC "-//W3C//DTD SVG 1.1//EN" "http://www.w3.org/Graphics/SVG/1.1/DTD/svg11.dtd">
<svg xmlns="http://www.w3.org/2000/svg" version="1.1" width="512px" height="512px" style="shape-rendering:geometricPrecision; text-rendering:geometricPrecision; image-rendering:optimizeQuality; fill-rule:evenodd; clip-rule:evenodd" xmlns:xlink="http://www.w3.org/1999/xlink">
<g><path style="opacity:0.993" fill="#3b8686" d="M 237.5,15.5 C 306.623,11.3141 360.457,37.6474 399,94.5C 412.176,116.028 420.176,139.362 423,164.5C 423.333,209.167 423.667,253.833 424,298.5C 425.079,301.063 425.579,303.729 425.5,306.5C 431.536,304.784 437.703,303.784 444,303.5C 446.5,303.667 449,303.833 451.5,304C 453.333,304.5 454.5,305.667 455,307.5C 455.912,319.225 455.579,330.892 454,342.5C 451.335,352.004 446.501,360.171 439.5,367C 445.352,367.185 448.019,370.185 447.5,376C 443.402,394.56 439.068,413.06 434.5,431.5C 480.15,425.984 500.317,445.984 495,491.5C 494.5,493.333 493.333,494.5 491.5,495C 334.167,495.667 176.833,495.667 19.5,495C 17.6667,494.5 16.5,493.333 16,491.5C 10.6834,445.984 30.8501,425.984 76.5,431.5C 71.9317,413.06 67.5984,394.56 63.5,376C 62.9812,370.185 65.6478,367.185 71.5,367C 64.4986,360.171 59.6653,352.004 57,342.5C 55.4213,330.892 55.088,319.225 56,307.5C 56.5,305.667 57.6667,304.5 59.5,304C 68.3835,302.656 76.8835,303.823 85,307.5C 85.8624,305.913 86.5291,304.246 87,302.5C 87.3333,256.5 87.6667,210.5 88,164.5C 95.3563,110.916 121.523,69.4161 166.5,40C 188.514,26.7187 212.181,18.552 237.5,15.5 Z"/></g>
<g><path style="opacity:1" fill="#fcfdfd" d="M 143.5,105.5 C 143.5,97.5 143.5,89.5 143.5,81.5C 181.289,41.2873 227.622,25.454 282.5,34C 341.343,46.8401 380.843,81.6735 401,138.5C 403.792,148 405.792,157.667 407,167.5C 407.667,202.5 407.667,237.5 407,272.5C 405.274,271.424 403.441,271.257 401.5,272C 398.073,273.796 394.906,275.963 392,278.5C 391.667,241.833 391.333,205.167 391,168.5C 380.48,104.98 343.98,65.4801 281.5,50C 224.352,41.4249 178.352,59.9249 143.5,105.5 Z"/></g>
<g><path style="opacity:1" fill="#cdee9e" d="M 367.5,305.5 C 367.667,265.165 367.5,224.832 367,184.5C 354.882,118.715 315.716,81.2149 249.5,72C 241.167,71.3333 232.833,71.3333 224.5,72C 217.084,73.1966 209.751,74.6966 202.5,76.5C 227.065,63.5395 253.065,60.0395 280.5,66C 333.962,80.4611 365.462,114.961 375,169.5C 375.813,215.522 375.647,261.522 374.5,307.5C 371.848,307.59 369.515,306.924 367.5,305.5 Z"/></g>
<g><path style="opacity:1" fill="#fefefe" d="M 367.5,305.5 C 361.263,303.827 354.93,303.327 348.5,304C 346.333,304.833 344.833,306.333 344,308.5C 342.326,323.211 343.826,337.545 348.5,351.5C 339.5,351.5 330.5,351.5 321.5,351.5C 327.402,348.867 328.902,344.534 326,338.5C 324.829,337.107 323.329,336.273 321.5,336C 298.5,335.333 275.5,335.333 252.5,336C 251.473,336.513 250.473,337.013 249.5,337.5C 243.084,333.789 236.417,330.289 229.5,327C 225.92,324.723 222.586,322.223 219.5,319.5C 230.857,319.602 233.857,314.769 228.5,305C 219.384,302.841 210.384,303.008 201.5,305.5C 170.367,276.91 151.534,241.577 145,199.5C 143.713,180.189 143.213,160.856 143.5,141.5C 154.437,111.897 174.103,90.2305 202.5,76.5C 209.751,74.6966 217.084,73.1966 224.5,72C 232.833,71.3333 241.167,71.3333 249.5,72C 315.716,81.2149 354.882,118.715 367,184.5C 367.5,224.832 367.667,265.165 367.5,305.5 Z"/></g>
<g><path style="opacity:1" fill="#cdef9d" d="M 143.5,81.5 C 143.5,89.5 143.5,97.5 143.5,105.5C 132.195,122.568 124.695,141.235 121,161.5C 119.712,198.471 119.045,235.471 119,272.5C 117.274,271.424 115.441,271.257 113.5,272C 110.073,273.796 106.906,275.963 104,278.5C 103.333,241.5 103.333,204.5 104,167.5C 107.764,134.318 120.931,105.651 143.5,81.5 Z"/></g>
<g><path style="opacity:1" fill="#3b8686" d="M 193.5,111.5 C 234.501,111.333 275.501,111.5 316.5,112C 325.573,114.739 331.74,120.573 335,129.5C 335.667,175.833 335.667,222.167 335,268.5C 332.167,278 326,284.167 316.5,287C 275.5,287.667 234.5,287.667 193.5,287C 184.573,283.74 178.739,277.573 176,268.5C 175.333,222.167 175.333,175.833 176,129.5C 179.353,120.982 185.186,114.982 193.5,111.5 Z"/></g>
<g><path style="opacity:1" fill="#a7daa7" d="M 196.5,127.5 C 235.501,127.333 274.501,127.5 313.5,128C 315.329,128.273 316.829,129.107 318,130.5C 319.656,175.416 319.989,220.416 319,265.5C 318.727,267.329 317.893,268.829 316.5,270C 312.27,271.29 307.936,271.79 303.5,271.5C 302.725,258.445 296.725,248.611 285.5,242C 291.001,235.497 294.167,227.997 295,219.5C 305.39,159.557 280.557,134.39 220.5,144C 218.333,144.833 216.833,146.333 216,148.5C 215.333,172.5 215.333,196.5 216,220.5C 217.261,228.685 220.427,236.018 225.5,242.5C 214.177,248.803 208.177,258.47 207.5,271.5C 203.818,271.665 200.152,271.499 196.5,271C 193.898,270.065 192.398,268.232 192,265.5C 191.333,221.167 191.333,176.833 192,132.5C 193.025,130.313 194.525,128.646 196.5,127.5 Z"/></g>
<g><path style="opacity:1" fill="#ceef9e" d="M 143.5,141.5 C 143.213,160.856 143.713,180.189 145,199.5C 151.534,241.577 170.367,276.91 201.5,305.5C 198.6,309.931 198.933,314.097 202.5,318C 208.044,319.404 213.71,319.904 219.5,319.5C 222.586,322.223 225.92,324.723 229.5,327C 236.417,330.289 243.084,333.789 249.5,337.5C 246.169,343.029 247.169,347.529 252.5,351C 275.498,351.5 298.498,351.667 321.5,351.5C 330.5,351.5 339.5,351.5 348.5,351.5C 351.724,356.739 355.391,361.739 359.5,366.5C 354.449,367.713 351.783,370.88 351.5,376C 356.085,394.172 360.751,412.338 365.5,430.5C 292.167,431.833 218.833,431.833 145.5,430.5C 150.249,412.338 154.915,394.172 159.5,376C 159.196,370.861 156.529,367.695 151.5,366.5C 159.84,357.82 165.007,347.487 167,335.5C 167.667,326.5 167.667,317.5 167,308.5C 164.505,304.546 160.839,302.879 156,303.5C 149.719,304.389 143.552,305.723 137.5,307.5C 137.477,305.073 136.977,302.74 136,300.5C 135.333,256.833 135.333,213.167 136,169.5C 136.966,159.628 139.466,150.295 143.5,141.5 Z"/></g>
<g><path style="opacity:1" fill="#78bc99" d="M 231.5,159.5 C 240.839,159.334 250.173,159.5 259.5,160C 274.54,164.56 281.206,174.727 279.5,190.5C 268.915,189.207 259.915,184.707 252.5,177C 244.964,174.019 240.131,176.519 238,184.5C 236.185,186.405 234.185,188.072 232,189.5C 231.5,179.506 231.334,169.506 231.5,159.5 Z"/></g>
<g><path style="opacity:1" fill="#ccee9f" d="M 279.5,214.5 C 267.131,213.399 256.631,208.399 248,199.5C 245.908,202.681 243.575,205.681 241,208.5C 240.308,217.291 243.141,224.791 249.5,231C 253.428,233.79 257.428,236.29 261.5,238.5C 246.709,240.847 236.876,234.847 232,220.5C 231.333,215.833 231.333,211.167 232,206.5C 238.741,204.256 244.574,200.589 249.5,195.5C 258.186,201.841 267.853,205.841 278.5,207.5C 279.474,209.743 279.808,212.076 279.5,214.5 Z"/></g>
<g><path style="opacity:1" fill="#fdfefd" d="M 279.5,214.5 C 279.189,226.806 273.189,234.806 261.5,238.5C 257.428,236.29 253.428,233.79 249.5,231C 243.141,224.791 240.308,217.291 241,208.5C 243.575,205.681 245.908,202.681 248,199.5C 256.631,208.399 267.131,213.399 279.5,214.5 Z"/></g>
<g><path style="opacity:1" fill="#78bc99" d="M 234.5,255.5 C 249.225,255.068 263.892,255.568 278.5,257C 284.433,260.036 287.433,264.869 287.5,271.5C 266.167,271.5 244.833,271.5 223.5,271.5C 224.016,263.986 227.683,258.653 234.5,255.5 Z"/></g>
<g><path style="opacity:1" fill="#a4d8a7" d="M 112.5,291.5 C 119.9,298.859 123.066,307.859 122,318.5C 117.999,322.005 114.499,326.005 111.5,330.5C 107.386,325.736 103.72,320.736 100.5,315.5C 102.394,306.378 106.394,298.378 112.5,291.5 Z"/></g>
<g><path style="opacity:1" fill="#a4d8a7" d="M 400.5,291.5 C 407.9,298.859 411.066,307.859 410,318.5C 405.999,322.005 402.499,326.005 399.5,330.5C 395.386,325.736 391.72,320.736 388.5,315.5C 390.394,306.378 394.394,298.378 400.5,291.5 Z"/></g>
<g><path style="opacity:1" fill="#3e8787" d="M 219.5,319.5 C 213.71,319.904 208.044,319.404 202.5,318C 198.933,314.097 198.6,309.931 201.5,305.5C 210.384,303.008 219.384,302.841 228.5,305C 233.857,314.769 230.857,319.602 219.5,319.5 Z"/></g>
<g><path style="opacity:1" fill="#3c8686" d="M 252.5,303.5 C 275.502,303.333 298.502,303.5 321.5,304C 327.448,306.433 328.948,310.6 326,316.5C 324.829,317.893 323.329,318.727 321.5,319C 298.5,319.667 275.5,319.667 252.5,319C 247.465,315.987 246.298,311.82 249,306.5C 250.145,305.364 251.312,304.364 252.5,303.5 Z"/></g>
<g><path style="opacity:1" fill="#a6d9a7" d="M 71.5,320.5 C 94.5644,327.234 104.898,342.568 102.5,366.5C 80.3188,359.294 69.9854,343.961 71.5,320.5 Z"/></g>
<g><path style="opacity:1" fill="#a6d9a7" d="M 149.5,320.5 C 153.191,343.714 143.524,359.048 120.5,366.5C 118.024,343.441 127.691,328.108 149.5,320.5 Z"/></g>
<g><path style="opacity:1" fill="#a6d9a7" d="M 359.5,320.5 C 382.564,327.234 392.898,342.568 390.5,366.5C 368.319,359.294 357.985,343.961 359.5,320.5 Z"/></g>
<g><path style="opacity:1" fill="#a6d9a7" d="M 437.5,320.5 C 441.191,343.714 431.524,359.048 408.5,366.5C 406.024,343.441 415.691,328.108 437.5,320.5 Z"/></g>
<g><path style="opacity:1" fill="#3c8686" d="M 180.5,335.5 C 195.504,335.333 210.504,335.5 225.5,336C 230.599,337.695 232.432,341.195 231,346.5C 230.065,349.102 228.232,350.602 225.5,351C 210.5,351.667 195.5,351.667 180.5,351C 175.465,347.987 174.298,343.82 177,338.5C 178.145,337.364 179.312,336.364 180.5,335.5 Z"/></g>
<g><path style="opacity:1" fill="#3c8686" d="M 321.5,351.5 C 298.498,351.667 275.498,351.5 252.5,351C 247.169,347.529 246.169,343.029 249.5,337.5C 250.473,337.013 251.473,336.513 252.5,336C 275.5,335.333 298.5,335.333 321.5,336C 323.329,336.273 324.829,337.107 326,338.5C 328.902,344.534 327.402,348.867 321.5,351.5 Z"/></g>
<g><path style="opacity:1" fill="#3e8786" d="M 204.5,367.5 C 212.585,367.099 220.585,367.599 228.5,369C 232.5,373.333 232.5,377.667 228.5,382C 220.579,383.568 212.579,383.901 204.5,383C 199.465,379.987 198.298,375.82 201,370.5C 202.145,369.364 203.312,368.364 204.5,367.5 Z"/></g>
<g><path style="opacity:1" fill="#3c8686" d="M 252.5,367.5 C 275.502,367.333 298.502,367.5 321.5,368C 327.448,370.433 328.948,374.6 326,380.5C 324.829,381.893 323.329,382.727 321.5,383C 298.5,383.667 275.5,383.667 252.5,383C 247.465,379.987 246.298,375.82 249,370.5C 250.145,369.364 251.312,368.364 252.5,367.5 Z"/></g>
<g><path style="opacity:1" fill="#78bc99" d="M 82.5,383.5 C 101.833,383.5 121.167,383.5 140.5,383.5C 136.833,399.5 133.167,415.5 129.5,431.5C 117.5,431.5 105.5,431.5 93.5,431.5C 89.8333,415.5 86.1667,399.5 82.5,383.5 Z"/></g>
<g><path style="opacity:1" fill="#78bc99" d="M 370.5,383.5 C 389.833,383.5 409.167,383.5 428.5,383.5C 424.833,399.5 421.167,415.5 417.5,431.5C 405.5,431.5 393.5,431.5 381.5,431.5C 377.833,415.5 374.167,399.5 370.5,383.5 Z"/></g>
<g><path style="opacity:1" fill="#fefefe" d="M 52.5,447.5 C 188.5,447.333 324.5,447.5 460.5,448C 468.921,450.259 474.588,455.426 477.5,463.5C 342.5,463.667 207.5,463.5 72.5,463C 67.2754,461.721 62.6087,459.388 58.5,456C 55.6194,453.721 53.6194,450.888 52.5,447.5 Z"/></g>
<g><path style="opacity:1" fill="#ceef9e" d="M 52.5,447.5 C 53.6194,450.888 55.6194,453.721 58.5,456C 62.6087,459.388 67.2754,461.721 72.5,463C 207.5,463.5 342.5,463.667 477.5,463.5C 478.222,463.918 478.722,464.584 479,465.5C 479.499,470.155 479.666,474.821 479.5,479.5C 330.167,479.5 180.833,479.5 31.5,479.5C 29.0146,462.445 36.0146,451.778 52.5,447.5 Z"/></g>
</svg>
